<?xml version="1.0" standalone="no"?>
<!DOCTYPE svg PUBLIC "-//W3C//DTD SVG 1.1//EN" "http://www.w3.org/Graphics/SVG/1.1/DTD/svg11.dtd" >
<svg>
<metadata>
Created by FontForge 20090622 at Tue Jan 16 23:06:17 2018
 By deploy user
2008 Tobias Kvant published by FSI FontShop International GmbH
</metadata>
<defs>
<font id="EnzoOT-Medi" horiz-adv-x="680" >
  <font-face 
    font-family="EnzoOT-Medi"
    font-weight="500"
    font-stretch="normal"
    units-per-em="1000"
    panose-1="2 1 6 4 1 1 1 1 1 4"
    ascent="828"
    descent="-172"
    x-height="516"
    cap-height="700"
    bbox="-546 -204 1369 935"
    underline-thickness="46"
    underline-position="-85"
    unicode-range="U+000D-U+FB04"
  />
<missing-glyph horiz-adv-x="538" 
d="M51 0v700h436v-700h-436zM97 46h344v608h-344v-608z" />
    <glyph glyph-name="fi" unicode="fi" horiz-adv-x="571" 
d="M459 610q-48 0 -48 43t48 43t48 -43t-48 -43zM512 0h-71q-19 59 -19 178v265h-240v-443h-74v443h-88v63h86q-7 42 -7 72q0 152 147 152q31 0 61 -8l-12 -63q-21 6 -42 6q-49 0 -66 -21t-17 -71q0 -39 8 -67h244l74 10v-342q0 -111 16 -174z" />
    <glyph glyph-name="fl" unicode="fl" horiz-adv-x="571" 
d="M182 0h-74v443h-88v63h86q-7 42 -7 72q0 152 147 152q31 0 61 -8l-12 -63q-21 6 -42 6q-49 0 -66 -21t-17 -71q0 -39 8 -67h120l-7 -63h-109v-443zM512 0h-71q-19 59 -19 178v530l74 10v-544q0 -111 16 -174z" />
    <glyph glyph-name="uniFB03" unicode="ffi" horiz-adv-x="885" 
d="M773 610q-48 0 -48 43t48 43t48 -43t-48 -43zM826 0h-71q-19 59 -19 178v265h-240v-443h-74v443h-240v-443h-74v443h-88v63h86q-7 42 -7 72q0 152 147 152q31 0 61 -8l-12 -63q-21 6 -42 6q-49 0 -66 -21t-17 -71q0 -39 8 -67h242q-7 42 -7 72q0 152 147 152q31 0 61 -8
l-12 -63q-21 6 -42 6q-49 0 -66 -21t-17 -71q0 -39 8 -67h244l74 10v-342q0 -111 16 -174z" />
    <glyph glyph-name="uniFB04" unicode="ffl" horiz-adv-x="885" 
d="M826 0h-71q-19 59 -19 178v530l74 10v-544q0 -111 16 -174zM496 0h-74v443h-240v-443h-74v443h-88v63h86q-7 42 -7 72q0 152 147 152q31 0 61 -8l-12 -63q-21 6 -42 6q-49 0 -66 -21t-17 -71q0 -39 8 -67h242q-7 42 -7 72q0 152 147 152q31 0 61 -8l-12 -63q-21 6 -42 6
q-49 0 -66 -21t-17 -71q0 -39 8 -67h120l-7 -63h-109v-443z" />
    <glyph glyph-name=".notdef" horiz-adv-x="538" 
d="M51 0v700h436v-700h-436zM97 46h344v608h-344v-608z" />
    <glyph glyph-name=".null" horiz-adv-x="0" 
 />
    <glyph glyph-name=".null" horiz-adv-x="0" 
 />
    <glyph glyph-name="nonmarkingreturn" horiz-adv-x="333" 
 />
    <glyph glyph-name="CR" unicode="&#xd;" horiz-adv-x="203" 
 />
    <glyph glyph-name="space" unicode=" " horiz-adv-x="203" 
 />
    <glyph glyph-name="exclam" unicode="!" horiz-adv-x="257" 
d="M166 180h-61q-2 65 -12 516l84 9q0 -24 -2.5 -141.5t-5.5 -242.5t-3 -141zM135 -5q-51 0 -51 50t51 50t51 -50t-51 -50z" />
    <glyph glyph-name="quotedbl" unicode="&#x22;" horiz-adv-x="312" 
d="M264 405h-59q-1 25 -8 313h75q0 -24 -4 -161t-4 -152zM107 405h-59q-1 25 -8 313h75q0 -24 -4 -161t-4 -152z" />
    <glyph glyph-name="numbersign" unicode="#" horiz-adv-x="833" 
d="M531 0h-74l34 170h-222l-32 -170h-75l34 170h-141l13 66h141l45 228h-141l14 66h140l31 170h77l-34 -170h221l32 170h76l-32 -170h140l-14 -66h-140l-47 -228h142l-13 -66h-142zM503 236l46 228h-221l-46 -228h221z" />
    <glyph glyph-name="dollar" unicode="$" horiz-adv-x="562" 
d="M313 -117h-64v107q-125 8 -209 61l28 67q105 -60 220 -60q156 0 156 134q0 16 -4.5 29.5t-10 23.5t-18.5 19.5t-21.5 14.5t-28 12.5t-29 10t-33.5 9.5t-33 10q-36 10 -60.5 19t-54.5 26t-48.5 36.5t-31 49.5t-12.5 68q0 89 52 136.5t138 54.5v106h64v-106q96 -5 168 -40
l-26 -68q-77 39 -170 39q-149 0 -149 -120q0 -29 11 -50t37.5 -36t46.5 -22.5t63 -20.5l40 -12.5t37.5 -12.5t40 -16.5t33.5 -19.5t32.5 -25.5l22.5 -30t17.5 -39t4.5 -46.5q0 -95 -55.5 -146t-153.5 -56v-106z" />
    <glyph glyph-name="percent" unicode="%" horiz-adv-x="998" 
d="M242 260q-99 0 -143 54.5t-44 171.5t44 171.5t143 54.5t143 -54.5t44 -171.5t-44 -171.5t-143 -54.5zM242 314q74 0 98.5 41.5t24.5 130.5t-24.5 130.5t-98.5 41.5t-98.5 -41.5t-24.5 -130.5t24.5 -130.5t98.5 -41.5zM756 -12q-99 0 -143 54.5t-44 171.5t44 171.5
t143 54.5t143 -54.5t44 -171.5t-44 -171.5t-143 -54.5zM756 42q74 0 98.5 41.5t24.5 130.5t-24.5 130.5t-98.5 41.5t-98.5 -41.5t-24.5 -130.5t24.5 -130.5t98.5 -41.5zM374 -9l-52 18l298 700l52 -18z" />
    <glyph glyph-name="ampersand" unicode="&#x26;" horiz-adv-x="676" 
d="M533 0h-244q-117 0 -174.5 44.5t-57.5 144.5q0 78 44 121t104 49q-54 9 -86.5 48t-32.5 104q0 147 142 187l24 -65q-90 -29 -90 -129q0 -38 14 -63t40 -35.5t48.5 -14t53.5 -3.5h138v160l77 10v-167l111 -10v-61h-111v-320zM456 68v252h-147q-80 0 -125.5 -25.5
t-45.5 -97.5q0 -36 9.5 -59.5t25 -37.5t47 -21t62 -9t83.5 -2h91z" />
    <glyph glyph-name="quotesingle" unicode="'" horiz-adv-x="155" 
d="M107 405h-59q-1 25 -8 313h75q0 -24 -4 -161t-4 -152z" />
    <glyph glyph-name="parenleft" unicode="(" horiz-adv-x="288" 
d="M241 -117l-55 -33q-146 208 -146 439t146 439l55 -33q-67 -92 -98.5 -187.5t-31.5 -218.5t31.5 -218.5t98.5 -187.5z" />
    <glyph glyph-name="parenright" unicode=")" horiz-adv-x="288" 
d="M102 -150l-55 33q67 92 98.5 187.5t31.5 218.5t-31.5 218.5t-98.5 187.5l55 33q146 -208 146 -439t-146 -439z" />
    <glyph glyph-name="asterisk" unicode="*" horiz-adv-x="483" 
d="M334 319l-93 135l-93 -134l-50 36l99 130l-156 46l20 59l154 -54q-1 17 -4 163h63q0 -20 -2 -78.5t-3 -84.5l153 54l20 -59l-157 -47l98 -129z" />
    <glyph glyph-name="plus" unicode="+" 
d="M377 50h-74v205h-203v72h203v205h74v-205h203v-72h-203v-205z" />
    <glyph glyph-name="comma" unicode="," horiz-adv-x="222" 
d="M92 -140h-56l67 321l83 5z" />
    <glyph glyph-name="hyphen" unicode="-" horiz-adv-x="443" 
d="M377 255h-311v72h311v-72z" />
    <glyph glyph-name="period" unicode="." horiz-adv-x="232" 
d="M116 -6q-51 0 -51 52t51 52t51 -52t-51 -52z" />
    <glyph glyph-name="slash" unicode="/" horiz-adv-x="316" 
d="M280 693l-178 -700l-66 14l178 700z" />
    <glyph glyph-name="zero" unicode="0" horiz-adv-x="628" 
d="M314 -12q-136 0 -196.5 87t-60.5 275t60.5 275t196.5 87t196.5 -87t60.5 -275t-60.5 -275t-196.5 -87zM314 58q107 0 143 70.5t36 221.5t-36 221.5t-143 70.5t-143 -70.5t-36 -221.5t36 -221.5t143 -70.5z" />
    <glyph glyph-name="one" unicode="1" horiz-adv-x="237" 
d="M157 0h-77v689l77 11v-700z" />
    <glyph glyph-name="two" unicode="2" horiz-adv-x="543" 
d="M487 0h-418l-15 70q84 57 140.5 102t109.5 99t79 110t26 114q0 78 -39.5 112.5t-116.5 34.5q-99 0 -178 -46l-27 65q86 51 223 51q105 0 162 -54.5t57 -146.5q0 -119 -81 -223.5t-246 -217.5h324v-70z" />
    <glyph glyph-name="three" unicode="3" horiz-adv-x="559" 
d="M69 110q85 -52 200 -52q167 0 167 160q0 67 -44 98.5t-119 31.5q-14 0 -42 -2l-54 -5l-21 71l231 218h-332v70h415l17 -70l-246 -221q28 2 41 2q118 0 175.5 -54.5t57.5 -145.5q0 -97 -58.5 -160t-182.5 -63q-148 0 -236 56z" />
    <glyph glyph-name="four" unicode="4" 
d="M496 0h-77v190h-330l-23 67q64 101 87 200t32 247l82 -9q-29 -284 -122 -438h274v276l77 11v-287h131v-67h-131v-190z" />
    <glyph glyph-name="five" unicode="5" horiz-adv-x="556" 
d="M69 110q87 -52 201 -52q81 0 124.5 37t43.5 123q0 140 -164 140q-76 0 -174 -31l-36 69l33 304h362v-70h-298l-26 -226q72 23 143 23q103 0 171 -52t68 -164q0 -97 -58 -160t-184 -63q-148 0 -236 56z" />
    <glyph glyph-name="six" unicode="6" horiz-adv-x="595" 
d="M129 382q70 86 203 86q99 0 159 -61.5t60 -169.5q0 -112 -58.5 -180.5t-182.5 -68.5q-137 0 -197.5 87t-60.5 275q0 362 252 362q126 0 194 -41l-30 -66q-68 37 -152 37q-99 0 -142 -64.5t-45 -195.5zM132 297q2 -127 43 -183t135 -56q166 0 166 185q0 80 -42.5 118.5
t-113.5 38.5q-130 0 -188 -103z" />
    <glyph glyph-name="seven" unicode="7" horiz-adv-x="508" 
d="M242 0h-83q10 208 60.5 362.5t166.5 267.5h-345v70h418l14 -70q-67 -54 -113 -125t-70 -155.5t-34.5 -165.5t-13.5 -184z" />
    <glyph glyph-name="eight" unicode="8" horiz-adv-x="596" 
d="M420 348q124 -37 124 -160q0 -90 -62 -145t-183 -55q-126 0 -187 58t-61 151q0 58 30.5 104t93.5 62q-107 31 -107 157q0 82 59 137t172 55t172.5 -57.5t59.5 -139.5q0 -125 -111 -167zM299 57q85 0 126.5 33.5t41.5 93.5q0 23 -6.5 41t-23.5 31.5t-31.5 22t-45.5 17.5
t-49.5 13.5t-58.5 12.5l-20 4q-104 -31 -104 -125q0 -144 171 -144zM357 378q53 21 75 52.5t22 76.5q0 136 -155 136q-154 0 -154 -123q0 -21 5.5 -38t13 -29t23 -22.5t26.5 -16t34 -12t35 -9l38.5 -8z" />
    <glyph glyph-name="nine" unicode="9" horiz-adv-x="595" 
d="M466 318q-70 -86 -203 -86q-99 0 -159 61.5t-60 169.5q0 112 58.5 180.5t182.5 68.5q137 0 197.5 -87t60.5 -275q0 -362 -252 -362q-126 0 -194 41l30 66q68 -37 152 -37q99 0 142 64.5t45 195.5zM463 403q-2 127 -43 183t-135 56q-166 0 -166 -185q0 -80 42.5 -118.5
t113.5 -38.5q130 0 188 103z" />
    <glyph glyph-name="colon" unicode=":" horiz-adv-x="232" 
d="M116 -6q-51 0 -51 52t51 52t51 -52t-51 -52zM116 319q-51 0 -51 52t51 52t51 -52t-51 -52z" />
    <glyph glyph-name="semicolon" unicode=";" horiz-adv-x="259" 
d="M91 -140h-56l67 321l83 5zM141 319q-51 0 -51 52t51 52t51 -52t-51 -52z" />
    <glyph glyph-name="less" unicode="&#x3c;" 
d="M544 47l-444 211v66l444 212l36 -72l-406 -173l406 -173z" />
    <glyph glyph-name="equal" unicode="=" 
d="M580 358h-480v70h480v-70zM580 154h-480v70h480v-70z" />
    <glyph glyph-name="greater" unicode="&#x3e;" 
d="M136 46l-36 72l405 173l-405 173l36 71l444 -211v-66z" />
    <glyph glyph-name="question" unicode="?" horiz-adv-x="462" 
d="M229 180h-62q0 1 -2.5 70t-2.5 98q97 10 139 42t42 92q0 87 -57 126.5t-179 39.5q-13 0 -39 -2l8 64q20 2 57 2q138 0 214.5 -62t76.5 -155q0 -81 -44 -130.5t-148 -63.5q0 -7 -1 -52.5t-2 -68.5zM197 -5q-51 0 -51 50t51 50t51 -50t-51 -50z" />
    <glyph glyph-name="at" unicode="@" horiz-adv-x="906" 
d="M663 -83q-109 -69 -268 -69q-168 0 -254 92t-86 292q0 133 32.5 227.5t94 149t141 79t182.5 24.5q172 0 259 -85t87 -237q0 -321 -283 -348l-8 77q-54 -83 -166 -83q-76 0 -114.5 52.5t-38.5 141.5q0 95 19 159.5t54 95.5t72 42.5t86 11.5q95 0 184 -36l-40 -323l3 -83
q170 52 170 287q0 137 -66 204.5t-223 67.5q-90 0 -157.5 -21t-120 -68t-79 -129.5t-26.5 -200.5q0 -177 65.5 -255.5t217.5 -78.5q135 0 239 65zM556 190l32 272q-52 21 -119 21q-37 0 -64 -10t-50.5 -36t-36 -76.5t-12.5 -124.5q0 -73 22.5 -109t81.5 -36q53 0 83.5 23.5
t62.5 75.5z" />
    <glyph glyph-name="A" unicode="A" horiz-adv-x="582" 
d="M478 -5l-53 169h-272l-50 -164h-83l231 696l78 9l233 -700zM405 231l-116 375l-115 -375h231z" />
    <glyph glyph-name="B" unicode="B" horiz-adv-x="576" 
d="M146 388h138q31 0 53.5 3.5t48.5 14t40 35.5t14 63q0 140 -180 140q-51 0 -114 -13v-243zM146 68h91q53 0 83.5 2t62 9t47 21t25 37.5t9.5 59.5q0 72 -45.5 97.5t-125.5 25.5h-147v-252zM69 0v689q107 23 190 23q257 0 257 -201q0 -65 -32.5 -104t-86.5 -48
q60 -6 104 -49t44 -121q0 -100 -57.5 -144.5t-174.5 -44.5h-244z" />
    <glyph glyph-name="C" unicode="C" horiz-adv-x="561" 
d="M495 98l31 -65q-67 -45 -197 -45q-131 0 -202.5 82t-71.5 280t71.5 280t202.5 82q130 0 197 -45l-31 -65q-68 40 -162 40q-50 0 -83.5 -11.5t-61.5 -42t-41.5 -89.5t-13.5 -149t13.5 -149t41.5 -89.5t61.5 -42t83.5 -11.5q94 0 162 40z" />
    <glyph glyph-name="D" unicode="D" horiz-adv-x="650" 
d="M70 0v688q139 24 234 24q67 0 117 -15.5t91.5 -54t63 -111.5t21.5 -181q0 -191 -69 -270.5t-222 -79.5h-236zM147 70h159q116 0 164.5 59t48.5 221q0 88 -14.5 147t-44 90t-65.5 43t-87 12q-80 0 -161 -14v-558z" />
    <glyph glyph-name="E" unicode="E" horiz-adv-x="529" 
d="M474 0h-404v700h404v-70h-327v-222h268l-7 -70h-261v-268h327v-70z" />
    <glyph glyph-name="F" unicode="F" horiz-adv-x="499" 
d="M147 0h-77v700h404v-70h-327v-245h268l-7 -70h-261v-315z" />
    <glyph glyph-name="G" unicode="G" horiz-adv-x="647" 
d="M592 44q-100 -56 -244 -56q-73 0 -125.5 17.5t-91 58t-57.5 111.5t-19 175q0 186 82 274t214 88q129 0 210 -43l-32 -65q-73 38 -178 38q-106 0 -162 -68.5t-56 -223.5q0 -166 47.5 -229t169.5 -63q102 0 165 32v190h-179v70h256v-306z" />
    <glyph glyph-name="H" unicode="H" horiz-adv-x="621" 
d="M551 0h-77v335h-327v-335h-77v700h77v-295h327v295h77v-700z" />
    <glyph glyph-name="I" unicode="I" horiz-adv-x="217" 
d="M147 0h-77v700h77v-700z" />
    <glyph glyph-name="J" unicode="J" horiz-adv-x="248" 
d="M64 -167l-44 53q46 33 63.5 71t17.5 101v642h77v-639q0 -162 -114 -228z" />
    <glyph glyph-name="K" unicode="K" horiz-adv-x="549" 
d="M461 -10l-314 355v-345h-77v700h77v-329l294 336l69 -32l-280 -315l303 -332z" />
    <glyph glyph-name="L" unicode="L" horiz-adv-x="517" 
d="M484 0h-415v700h77v-630h338v-70z" />
    <glyph glyph-name="M" unicode="M" horiz-adv-x="793" 
d="M661 -4l-38 584l-189 -580h-73l-195 580l-34 -580h-79l55 700h97l194 -588l187 588h100l54 -698z" />
    <glyph glyph-name="N" unicode="N" horiz-adv-x="638" 
d="M568 0h-83l-345 581v-581h-70v689l85 17l343 -578v572h70v-700z" />
    <glyph glyph-name="O" unicode="O" horiz-adv-x="676" 
d="M338 58q64 0 105.5 19t63 60t29 90t7.5 123t-7.5 123t-29 90t-63 60t-105.5 19t-105.5 -19t-63 -60t-29 -90t-7.5 -123t7.5 -123t29 -90t63 -60t105.5 -19zM338 -12q-150 0 -216.5 87t-66.5 275t66.5 275t216.5 87t216.5 -87t66.5 -275t-66.5 -275t-216.5 -87z" />
    <glyph glyph-name="P" unicode="P" horiz-adv-x="564" 
d="M147 0h-77v689q97 23 186 23q288 0 288 -245q0 -63 -22 -109.5t-62 -72.5t-88 -38t-107 -12q-53 0 -118 10v-245zM147 312q51 -9 106 -9q106 0 159.5 35.5t53.5 126.5q0 98 -53.5 137.5t-149.5 39.5q-64 0 -116 -13v-317z" />
    <glyph glyph-name="Q" unicode="Q" horiz-adv-x="676" 
d="M439 -153q-66 55 -109 141q-145 1 -210 88.5t-65 273.5q0 188 66.5 275t216.5 87t216.5 -87t66.5 -275q0 -166 -52.5 -253.5t-167.5 -103.5q39 -62 111 -110zM338 58q64 0 105.5 19t63 60t29 90t7.5 123t-7.5 123t-29 90t-63 60t-105.5 19t-105.5 -19t-63 -60t-29 -90
t-7.5 -123t7.5 -123t29 -90t63 -60t105.5 -19z" />
    <glyph glyph-name="R" unicode="R" horiz-adv-x="580" 
d="M146 326h159q69 0 109 39t40 112q0 90 -49.5 127.5t-140.5 37.5q-55 0 -118 -15v-301zM469 -9l-149 265h-174v-256h-77v689q99 23 191 23q272 0 272 -238q0 -159 -141 -197l160 -267z" />
    <glyph glyph-name="S" unicode="S" horiz-adv-x="562" 
d="M40 51l28 67q99 -60 220 -60q156 0 156 134q0 16 -4.5 29.5t-10 23.5t-18.5 19.5t-21.5 14.5t-28 12.5t-29 10t-33.5 9.5t-33 10q-36 10 -60.5 19t-54.5 26t-48.5 36.5t-31 49.5t-12.5 68q0 96 61 144t159 48q120 0 202 -41l-26 -68q-74 39 -170 39q-149 0 -149 -120
q0 -29 11 -50t37.5 -36t46.5 -22.5t63 -20.5l40 -12.5t37.5 -12.5t40 -16.5t33.5 -19.5t32.5 -25.5l22.5 -30t17.5 -39t4.5 -46.5q0 -101 -62 -152t-170 -51q-150 0 -250 63z" />
    <glyph glyph-name="T" unicode="T" horiz-adv-x="563" 
d="M320 0h-77v630h-205v70h487v-70h-205v-630z" />
    <glyph glyph-name="U" unicode="U" horiz-adv-x="656" 
d="M591 700v-350q0 -187 -62 -274.5t-201 -87.5q-140 0 -201.5 87t-61.5 275v350h77v-350q0 -154 41.5 -223t145.5 -69t144.5 68.5t40.5 223.5v350h77z" />
    <glyph glyph-name="V" unicode="V" horiz-adv-x="580" 
d="M330 0h-78l-231 692l82 16l190 -613l188 613l78 -17z" />
    <glyph glyph-name="W" unicode="W" horiz-adv-x="854" 
d="M572 0l-141 584l-138 -584h-88l-184 693l83 15l146 -611l138 597l84 12l143 -609l138 611l80 -16l-176 -692h-85z" />
    <glyph glyph-name="X" unicode="X" horiz-adv-x="596" 
d="M494 -12l-200 317l-183 -305h-90l229 367l-209 321l83 21l173 -285l164 276h88l-209 -335l235 -352z" />
    <glyph glyph-name="Y" unicode="Y" horiz-adv-x="574" 
d="M323 0h-77v258l-223 432l82 19l180 -377l180 368h86l-228 -442v-258z" />
    <glyph glyph-name="Z" unicode="Z" horiz-adv-x="550" 
d="M501 0h-440l-20 70l357 560h-346v70h421l17 -68l-358 -562h377z" />
    <glyph glyph-name="bracketleft" unicode="[" horiz-adv-x="319" 
d="M264 -140h-196v858h196v-65h-126v-728h126v-65z" />
    <glyph glyph-name="backslash" unicode="\" horiz-adv-x="314" 
d="M101 708l177 -700l-65 -16l-177 700z" />
    <glyph glyph-name="bracketright" unicode="]" horiz-adv-x="319" 
d="M251 -140h-196v65h126v728h-126v65h196v-858z" />
    <glyph glyph-name="asciicircum" unicode="^" horiz-adv-x="445" 
d="M409 382l-61 -25l-126 292l-126 -292l-61 25l156 336h61z" />
    <glyph glyph-name="underscore" unicode="_" horiz-adv-x="500" 
d="M502 -154h-504v46h504v-46z" />
    <glyph glyph-name="grave" unicode="`" horiz-adv-x="222" 
d="M186 597l-55 -6l-95 171l80 6z" />
    <glyph glyph-name="a" unicode="a" horiz-adv-x="527" 
d="M414 -6q-13 37 -21 77q-48 -83 -168 -83q-91 0 -133 35t-42 117q0 78 73.5 115.5t260.5 45.5v12q0 149 -130 149q-76 0 -144 -33l-24 60q74 39 168 39q90 0 147 -50t57 -157v-134q0 -108 18 -179zM384 154v86q-135 -6 -198 -28.5t-63 -71.5t24 -70t92 -21q53 0 85.5 25.5
t59.5 79.5z" />
    <glyph glyph-name="b" unicode="b" horiz-adv-x="537" 
d="M70 20v688l74 10v-265q44 75 157 75q96 0 141 -67t45 -203q0 -79 -16.5 -133.5t-47.5 -83.5t-67 -41t-84 -12q-119 0 -202 32zM144 69q44 -18 131 -18q69 0 103 44.5t34 162.5q0 105 -26 156.5t-97 51.5q-53 0 -85.5 -25.5t-59.5 -78.5v-293z" />
    <glyph glyph-name="c" unicode="c" horiz-adv-x="441" 
d="M407 20q-57 -32 -138 -32q-113 0 -166 65t-53 205t53 205t166 65q81 0 138 -32l-28 -58q-47 24 -110 24q-79 0 -111.5 -44.5t-32.5 -159.5t32.5 -159.5t111.5 -44.5q63 0 110 24z" />
    <glyph glyph-name="d" unicode="d" horiz-adv-x="536" 
d="M485 8l-62 -14q-13 37 -21 77q-48 -83 -166 -83q-96 0 -141 67t-45 203q0 81 17.5 136.5t49 83.5t66 39t77.5 11q77 0 136 -30q-3 34 -3 104v106l74 10v-531q0 -108 18 -179zM393 154v281q-55 31 -126 31q-72 0 -107 -44t-35 -164q0 -105 26 -156.5t97 -51.5
q53 0 85.5 25.5t59.5 78.5z" />
    <glyph glyph-name="e" unicode="e" horiz-adv-x="517" 
d="M448 34q-70 -46 -173 -46q-111 0 -168 59.5t-57 210.5q0 65 12 114t31 78t48 47t58.5 24.5t65.5 6.5q104 0 154.5 -62.5t50.5 -219.5v-9l-344 -28q2 -87 39 -122.5t110 -35.5q79 0 146 40zM124 267l273 26q-1 93 -34.5 132.5t-97.5 39.5q-69 0 -105 -43.5t-36 -143.5v-11
z" />
    <glyph glyph-name="f" unicode="f" horiz-adv-x="321" 
d="M182 0h-74v443h-88v63h86q-7 42 -7 72q0 152 147 152q31 0 61 -8l-12 -63q-21 6 -42 6q-49 0 -66 -21t-17 -71q0 -39 8 -67h120l-7 -63h-109v-443z" />
    <glyph glyph-name="g" unicode="g" horiz-adv-x="537" 
d="M393 165v282q-44 18 -131 18q-69 0 -103 -43.5t-34 -156.5q0 -101 26 -150.5t97 -49.5q53 0 85.5 24.5t59.5 75.5zM145 -78q53 -26 125 -26q61 0 92 32.5t31 111.5v34q-42 -72 -157 -72q-96 0 -141 65t-45 198q0 77 16.5 130t47.5 81.5t67 40t84 11.5q119 0 202 -32v-460
q0 -103 -51.5 -152.5t-146.5 -49.5q-85 0 -144 27z" />
    <glyph glyph-name="h" unicode="h" horiz-adv-x="538" 
d="M476 0h-74v282q0 40 -1.5 63.5t-7.5 49.5t-18 39.5t-33.5 22.5t-53.5 9q-53 0 -85.5 -25.5t-59.5 -78.5v-362h-74v708l74 10v-265q43 75 159 75q54 0 90 -18.5t53.5 -53t24 -72t6.5 -88.5v-296z" />
    <glyph glyph-name="i" unicode="i" horiz-adv-x="224" 
d="M165 0h-71q-19 59 -19 178v328l74 10v-342q0 -111 16 -174zM112 610q-48 0 -48 43t48 43t48 -43t-48 -43z" />
    <glyph glyph-name="j" unicode="j" horiz-adv-x="228" 
d="M46 -169l-41 51q46 33 60.5 64.5t14.5 102.5v457l74 10v-464q0 -90 -24 -137t-84 -84zM117 610q-48 0 -48 43t48 43t48 -43t-48 -43z" />
    <glyph glyph-name="k" unicode="k" horiz-adv-x="467" 
d="M380 -10l-236 283v-273h-74v708l74 10v-427l220 231l67 -31l-205 -209l222 -255z" />
    <glyph glyph-name="l" unicode="l" horiz-adv-x="224" 
d="M165 0h-71q-19 59 -19 178v530l74 10v-544q0 -111 16 -174z" />
    <glyph glyph-name="m" unicode="m" horiz-adv-x="853" 
d="M791 0h-74v282q0 40 -1.5 63.5t-7.5 49.5t-17.5 39.5t-32 22.5t-51.5 9q-51 0 -82.5 -25.5t-57.5 -78.5v-362h-74v337q0 62 -23 95.5t-87 33.5q-51 0 -82.5 -25.5t-57.5 -78.5v-362h-74v329q0 108 -18 179l62 14q13 -37 21 -77q46 83 164 83q110 0 148 -89q54 89 176 89
q52 0 87 -18.5t52 -53t23.5 -72t6.5 -88.5v-296z" />
    <glyph glyph-name="n" unicode="n" horiz-adv-x="538" 
d="M476 0h-74v282q0 40 -1.5 63.5t-7.5 49.5t-18 39.5t-33.5 22.5t-53.5 9q-53 0 -85.5 -25.5t-59.5 -78.5v-362h-74v329q0 108 -18 179l62 14q13 -37 21 -77q48 83 168 83q54 0 90 -18.5t53.5 -53t24 -72t6.5 -88.5v-296z" />
    <glyph glyph-name="o" unicode="o" horiz-adv-x="550" 
d="M275 -12q-119 0 -172 65t-53 205t53 205t172 65t172 -65t53 -205t-53 -205t-172 -65zM275 51q90 0 120 50t30 157t-30 157t-120 50t-120 -50t-30 -157t30 -157t120 -50z" />
    <glyph glyph-name="p" unicode="p" horiz-adv-x="536" 
d="M143 81q55 -31 126 -31q72 0 107 44t35 164q0 105 -26 156.5t-97 51.5q-53 0 -85.5 -25.5t-59.5 -78.5v-281zM143 -154h-74v483q0 108 -18 179l62 14q13 -37 21 -77q48 83 166 83q96 0 141 -67t45 -203q0 -81 -17.5 -136.5t-49 -83.5t-66 -39t-77.5 -11q-77 0 -136 30
q3 -34 3 -98v-74z" />
    <glyph glyph-name="q" unicode="q" horiz-adv-x="537" 
d="M467 -144l-74 -10v217q-43 -75 -157 -75q-96 0 -141 67t-45 203q0 79 16.5 133.5t47.5 83.5t67 41t84 12q119 0 202 -32v-640zM393 154v293q-44 18 -131 18q-69 0 -103 -44.5t-34 -162.5q0 -105 26 -156.5t97 -51.5q53 0 85.5 25.5t59.5 78.5z" />
    <glyph glyph-name="r" unicode="r" horiz-adv-x="324" 
d="M143 0h-74v329q0 108 -18 179l62 14q14 -38 24 -89q43 87 155 95l10 -80q-61 -1 -99 -27.5t-60 -82.5v-338z" />
    <glyph glyph-name="s" unicode="s" horiz-adv-x="444" 
d="M64 92q70 -40 164 -40q54 0 81.5 18t27.5 62q0 39 -23 54.5t-91 35.5q-32 9 -51.5 15.5t-44.5 20t-38.5 29.5t-23.5 42t-10 59q0 69 47.5 104.5t121.5 35.5q96 0 157 -34l-25 -58q-52 28 -126 28q-50 0 -76.5 -16.5t-26.5 -63.5q0 -38 28 -56.5t88 -34.5l35 -10t32 -11
t32 -14.5t26 -18.5t23 -25t12.5 -32t5.5 -42q0 -152 -177 -152q-120 0 -192 45z" />
    <glyph glyph-name="t" unicode="t" horiz-adv-x="311" 
d="M197 -15q-57 45 -73 103.5t-16 158.5v206h-88v63h88v157l74 10v-167h115l-7 -63h-108v-227q0 -53 2.5 -79t17 -58.5t45.5 -61.5z" />
    <glyph glyph-name="u" unicode="u" horiz-adv-x="538" 
d="M425 -6q-13 37 -21 77q-48 -83 -168 -83q-54 0 -90 18.5t-53.5 53t-24 72t-6.5 88.5v286l74 10v-282q0 -40 1.5 -63.5t7.5 -49.5t18 -39.5t33.5 -22.5t53.5 -9q53 0 85.5 25.5t59.5 78.5v352l74 10v-329q0 -108 18 -179z" />
    <glyph glyph-name="v" unicode="v" horiz-adv-x="464" 
d="M275 0h-84l-171 507l79 15l136 -454l137 454l72 -15z" />
    <glyph glyph-name="w" unicode="w" horiz-adv-x="760" 
d="M502 0l-116 424l-123 -424h-87l-156 508l77 14l127 -450l123 439l76 9l120 -448l123 450l74 -12l-151 -510h-87z" />
    <glyph glyph-name="x" unicode="x" horiz-adv-x="477" 
d="M379 -11l-143 227l-133 -216h-81l170 268l-157 236l81 21l122 -205l114 196h84l-155 -244l174 -256z" />
    <glyph glyph-name="y" unicode="y" horiz-adv-x="464" 
d="M112 -169l-32 52q52 26 77 55.5t34 70.5l-171 498l79 15l136 -451l137 451l72 -14l-153 -454q-28 -84 -69.5 -140t-109.5 -83z" />
    <glyph glyph-name="z" unicode="z" horiz-adv-x="464" 
d="M423 0h-375l-13 63l290 390h-275v63h354l12 -63l-288 -390h301z" />
    <glyph glyph-name="braceleft" unicode="{" horiz-adv-x="357" 
d="M297 -140q-40 0 -68.5 6t-55 22t-40 49t-13.5 84q0 131 -18 183t-72 56l-5 63q23 2 39 9t26.5 23.5t16.5 31.5t8.5 46.5t3 54.5t0.5 68q0 97 44 131t134 34v-64q-35 0 -53.5 -3.5t-33 -16t-19.5 -37t-5 -67.5q0 -115 -17 -170.5t-66 -71.5q49 -16 66 -72t17 -173
q0 -79 22 -100.5t89 -21.5v-64z" />
    <glyph glyph-name="bar" unicode="|" horiz-adv-x="269" 
d="M169 -140h-69v934h69v-934z" />
    <glyph glyph-name="braceright" unicode="}" horiz-adv-x="357" 
d="M60 -140v64q67 0 89 21.5t22 100.5q0 117 17 173t66 72q-49 16 -66 71.5t-17 170.5q0 43 -5 67.5t-19.5 37t-33 16t-53.5 3.5v64q90 0 134 -34t44 -131q0 -45 0.5 -68t3 -54.5t8.5 -46.5t16.5 -31.5t26.5 -23.5t39 -9l-5 -63q-54 -4 -72 -56t-18 -183q0 -51 -13.5 -84
t-40 -49t-55 -22t-68.5 -6z" />
    <glyph glyph-name="asciitilde" unicode="~" horiz-adv-x="551" 
d="M485 299q-52 -67 -135 -67q-32 0 -80.5 28t-72.5 28q-49 0 -92 -49l-39 45q52 67 135 67q32 0 80.5 -28t72.5 -28q49 0 92 49z" />
    <glyph glyph-name="uni00A0" unicode="&#xa0;" horiz-adv-x="203" 
 />
    <glyph glyph-name="exclamdown" unicode="&#xa1;" horiz-adv-x="257" 
d="M174 -173l-84 -9q0 24 2.5 141.5t5.5 242.5t3 141h61q2 -65 12 -516zM132 428q-51 0 -51 50t51 50t51 -50t-51 -50z" />
    <glyph glyph-name="cent" unicode="&#xa2;" horiz-adv-x="441" 
d="M284 -112h-61v103q-89 12 -131 77t-42 190q0 124 42 189t131 78v103h61v-100q72 -3 123 -32l-28 -58q-47 24 -110 24q-79 0 -111.5 -44.5t-32.5 -159.5t32.5 -159.5t111.5 -44.5q63 0 110 24l28 -58q-51 -29 -123 -32v-100z" />
    <glyph glyph-name="sterling" unicode="&#xa3;" horiz-adv-x="557" 
d="M509 0h-420l-14 70q63 74 63 168q0 45 -5 79h-94v68h84q-20 98 -20 156q0 87 57.5 129t147.5 42q112 0 186 -45l-29 -64q-69 39 -153 39q-57 0 -93 -25.5t-36 -82.5q0 -54 18 -149h184v-68h-175q4 -33 4 -73q0 -105 -54 -174h349v-70z" />
    <glyph glyph-name="currency" unicode="&#xa4;" horiz-adv-x="637" 
d="M318 151q-64 0 -97 22l-70 -70l-45 45l69 69q-24 43 -24 98q0 60 25 98l-69 70l44 44l71 -71q43 23 96 23t96 -23l71 71l45 -45l-69 -69q24 -37 24 -98q0 -62 -24 -99l69 -68l-45 -45l-71 71q-43 -23 -96 -23zM318 205q107 0 107 110t-107 110t-107 -110t107 -110z" />
    <glyph glyph-name="yen" unicode="&#xa5;" horiz-adv-x="574" 
d="M323 0h-77v144h-152v56h152v70h-152v56h123l-194 364l82 19l180 -362l180 353h86l-201 -374h129v-56h-156v-70h156v-56h-156v-144z" />
    <glyph glyph-name="brokenbar" unicode="&#xa6;" horiz-adv-x="269" 
d="M169 381h-69v413h69v-413zM169 -140h-69v413h69v-413z" />
    <glyph glyph-name="section" unicode="&#xa7;" horiz-adv-x="537" 
d="M354 156q66 28 66 95q0 47 -35.5 71.5t-102.5 45.5q-77 24 -99 36q-28 -12 -47 -36.5t-19 -58.5q0 -43 22.5 -63.5t87.5 -45.5q14 -5 59 -19t68 -25zM103 -43q76 -42 157 -42q64 0 95.5 20t31.5 72q0 24 -12.5 42.5t-36 30.5t-44 19.5t-50.5 16t-42 12.5
q-36 13 -59.5 24.5t-49 31t-38 47t-12.5 63.5q0 102 80 148q-50 27 -50 107q0 82 56.5 122.5t139.5 40.5q112 0 193 -48l-29 -61q-76 42 -157 42q-126 0 -126 -92q0 -18 8.5 -33.5t18.5 -25.5t30 -19.5t31.5 -13.5t35.5 -11t30 -9q36 -11 56 -18.5t49.5 -23t45 -32t27.5 -43
t12 -59.5q0 -102 -81 -146q51 -29 51 -109q0 -82 -56.5 -122t-140.5 -40q-112 0 -193 48z" />
    <glyph glyph-name="dieresis" unicode="&#xa8;" horiz-adv-x="391" 
d="M98 611q-46 0 -46 43t46 43t46 -43t-46 -43zM293 611q-46 0 -46 43t46 43t46 -43t-46 -43z" />
    <glyph glyph-name="copyright" unicode="&#xa9;" horiz-adv-x="807" 
d="M403 40q294 0 294 310t-294 310q-293 0 -293 -310t293 -310zM403 -12q-169 0 -258.5 93t-89.5 269t89.5 269t258.5 93q170 0 259.5 -93t89.5 -269t-89.5 -269t-259.5 -93zM538 133q-58 -33 -133 -33q-87 0 -138 60t-51 188t51 188t138 60q75 0 133 -33l-22 -49
q-48 27 -109 27q-70 0 -100.5 -44.5t-30.5 -148.5t30.5 -148.5t100.5 -44.5q61 0 109 27z" />
    <glyph glyph-name="ordfeminine" unicode="&#xaa;" horiz-adv-x="345" 
d="M235 490v51q-87 -5 -112.5 -15.5t-25.5 -40.5q0 -26 11.5 -38t47.5 -12q30 0 47.5 13.5t31.5 41.5zM294 407l-40 -9q-7 16 -13 42q-23 -45 -95 -45q-99 0 -99 89q0 51 41.5 72t146.5 26q0 50 -17.5 68.5t-53.5 18.5q-44 0 -78 -19l-19 38q41 24 103 24q50 0 82.5 -31
t32.5 -92v-71q0 -76 9 -111zM298 319h-242v40h242v-40z" />
    <glyph glyph-name="guillemotleft" unicode="&#xab;" horiz-adv-x="668" 
d="M306 71l-251 182v62l251 182l34 -61l-224 -152l224 -153zM580 71l-251 182v62l251 182l34 -61l-224 -152l224 -153z" />
    <glyph glyph-name="logicalnot" unicode="&#xac;" 
d="M580 102h-75v153h-405v72h480v-225z" />
    <glyph glyph-name="uni00AD" unicode="&#xad;" horiz-adv-x="443" 
d="M377 255h-311v72h311v-72z" />
    <glyph glyph-name="registered" unicode="&#xae;" horiz-adv-x="807" 
d="M541 113l-100 170h-125v-167h-60v463q76 18 138 18q87 0 141 -38t54 -127q0 -107 -89 -140l99 -154zM316 335h115q98 0 98 97q0 110 -130 110q-38 0 -83 -10v-197zM403 40q294 0 294 310t-294 310q-293 0 -293 -310t293 -310zM403 -12q-169 0 -258.5 93t-89.5 269
t89.5 269t258.5 93q170 0 259.5 -93t89.5 -269t-89.5 -269t-259.5 -93z" />
    <glyph glyph-name="macron" unicode="&#xaf;" horiz-adv-x="454" 
d="M414 593h-374v63h374v-63z" />
    <glyph glyph-name="degree" unicode="&#xb0;" horiz-adv-x="400" 
d="M200 493q96 0 96 95t-96 95t-96 -95t96 -95zM200 446q-72 0 -110 36.5t-38 105.5t38 105.5t110 36.5q73 0 110.5 -36.5t37.5 -105.5t-37.5 -105.5t-110.5 -36.5z" />
    <glyph glyph-name="plusminus" unicode="&#xb1;" 
d="M580 0h-480v72h480v-72zM377 135h-74v187h-203v72h203v186h74v-186h203v-72h-203v-187z" />
    <glyph glyph-name="twosuperior" unicode="&#xb2;" horiz-adv-x="360" 
d="M305 305h-241l-11 54l73 52.5t58 49t46 58t14 59.5q0 41 -18 58t-60 17q-52 0 -98 -26l-19 51q47 29 132 29q59 0 92 -31t33 -84q0 -64 -41.5 -118.5t-128.5 -114.5h169v-54z" />
    <glyph glyph-name="threesuperior" unicode="&#xb3;" horiz-adv-x="369" 
d="M65 382q49 -30 112 -30q83 0 83 76q0 63 -76 63q-20 0 -30 -1l-29 -4l-14 54l120 106h-176v54h239l13 -54l-132 -111q12 2 19 2q127 -1 127 -111q0 -54 -33 -91t-109 -37q-87 0 -136 34z" />
    <glyph glyph-name="acute" unicode="&#xb4;" horiz-adv-x="222" 
d="M91 591l-55 6l71 171l79 -6z" />
    <glyph glyph-name="mu" unicode="&#xb5;" horiz-adv-x="546" 
d="M495 8l-62 -14q-13 37 -21 77q-47 -83 -168 -83q-71 0 -100 40v-182h-74v660l74 10v-282q0 -40 1.5 -63.5t7.5 -49.5t18 -39.5t33.5 -22.5t53.5 -9q53 0 85.5 25.5t59.5 78.5v352l74 10v-329q0 -108 18 -179z" />
    <glyph glyph-name="paragraph" unicode="&#xb6;" horiz-adv-x="510" 
d="M432 0h-63v636q-27 9 -67 9v-645h-63v302q-102 0 -155 57.5t-53 146.5q0 100 67 152.5t187 52.5q65 0 147 -20v-691z" />
    <glyph glyph-name="periodcentered" unicode="&#xb7;" horiz-adv-x="232" 
d="M116 285q-51 0 -51 52t51 52t51 -52t-51 -52z" />
    <glyph glyph-name="cedilla" unicode="&#xb8;" horiz-adv-x="235" 
d="M40 -162l14 48q21 -9 48 -9q36 0 36 25q0 30 -62 30l14 68h58l-9 -39q56 -7 56 -60q0 -38 -24.5 -56t-64.5 -18q-29 0 -66 11z" />
    <glyph glyph-name="onesuperior" unicode="&#xb9;" horiz-adv-x="207" 
d="M133 305h-59v387l59 8v-395z" />
    <glyph glyph-name="ordmasculine" unicode="&#xba;" horiz-adv-x="360" 
d="M180 437q50 0 66.5 28t16.5 89q0 60 -16.5 88t-66.5 28t-66.5 -28t-16.5 -88q0 -61 16.5 -89t66.5 -28zM300 319h-240v40h240v-40zM180 395q-71 0 -102 38t-31 121q0 82 31.5 120t101.5 38t101.5 -38t31.5 -120q0 -83 -31 -121t-102 -38z" />
    <glyph glyph-name="guillemotright" unicode="&#xbb;" horiz-adv-x="668" 
d="M613 253l-251 -182l-34 60l224 153l-224 152l34 61l251 -182v-62zM339 253l-251 -182l-34 60l224 153l-224 152l34 61l251 -182v-62z" />
    <glyph glyph-name="onequarter" unicode="&#xbc;" horiz-adv-x="650" 
d="M136 305h-59v387l59 8v-395zM549 0h-59v102h-165l-16 52q31 50 42 107t15 137l64 -6q-16 -155 -62 -239h122v144l59 8v-152h49v-51h-49v-102zM419 692l-298 -701l-47 19l298 701z" />
    <glyph glyph-name="onehalf" unicode="&#xbd;" horiz-adv-x="649" 
d="M136 305h-59v387l59 8v-395zM594 0h-241l-11 54l73 52.5t58 49t46 58t14 59.5q0 41 -18 58t-60 17q-52 0 -98 -26l-19 51q47 29 132 29q59 0 92 -31t33 -84q0 -64 -41.5 -118.5t-128.5 -114.5h169v-54zM419 692l-298 -701l-47 19l298 701z" />
    <glyph glyph-name="threequarters" unicode="&#xbe;" horiz-adv-x="801" 
d="M700 0h-59v102h-165l-16 52q31 50 42 107t15 137l64 -6q-16 -155 -62 -239h122v144l59 8v-152h49v-51h-49v-102zM65 382q49 -30 112 -30q83 0 83 76q0 63 -76 63q-20 0 -30 -1l-29 -4l-14 54l120 106h-176v54h239l13 -54l-132 -111q12 2 19 2q127 -1 127 -111
q0 -54 -33 -91t-109 -37q-87 0 -136 34zM570 692l-298 -701l-47 19l298 701z" />
    <glyph glyph-name="questiondown" unicode="&#xbf;" horiz-adv-x="462" 
d="M408 -187q-20 -2 -57 -2q-138 0 -214.5 62t-76.5 155q0 81 44 130.5t148 63.5q0 7 1 52.5t2 68.5h62q0 -1 2.5 -70t2.5 -98q-97 -10 -139 -42t-42 -92q0 -87 57 -126.5t179 -39.5q13 0 39 2zM287 428q-51 0 -51 50t51 50t51 -50t-51 -50z" />
    <glyph glyph-name="Agrave" unicode="&#xc0;" horiz-adv-x="582" 
d="M478 -5l-53 169h-272l-50 -164h-83l231 696l78 9l233 -700zM405 231l-116 375l-115 -375h231zM331 763l-55 -6l-95 171l80 6z" />
    <glyph glyph-name="Aacute" unicode="&#xc1;" horiz-adv-x="582" 
d="M478 -5l-53 169h-272l-50 -164h-83l231 696l78 9l233 -700zM405 231l-116 375l-115 -375h231zM301 757l-55 6l71 171l79 -6z" />
    <glyph glyph-name="Acircumflex" unicode="&#xc2;" horiz-adv-x="582" 
d="M478 -5l-53 169h-272l-50 -164h-83l231 696l78 9l233 -700zM405 231l-116 375l-115 -375h231zM431 748l-142 98l-142 -98l-39 34l153 125h57l153 -125z" />
    <glyph glyph-name="Atilde" unicode="&#xc3;" horiz-adv-x="582" 
d="M478 -5l-53 169h-272l-50 -164h-83l231 696l78 9l233 -700zM405 231l-116 375l-115 -375h231zM499 822q-52 -67 -135 -67q-32 0 -80.5 28t-72.5 28q-49 0 -92 -49l-39 45q52 67 135 67q32 0 80.5 -28t72.5 -28q49 0 92 49z" />
    <glyph glyph-name="Adieresis" unicode="&#xc4;" horiz-adv-x="582" 
d="M478 -5l-53 169h-272l-50 -164h-83l231 696l78 9l233 -700zM405 231l-116 375l-115 -375h231zM193 757q-46 0 -46 43t46 43t46 -43t-46 -43zM388 757q-46 0 -46 43t46 43t46 -43t-46 -43z" />
    <glyph glyph-name="Aring" unicode="&#xc5;" horiz-adv-x="582" 
d="M478 -5l-53 169h-272l-50 -164h-83l220 663q-74 19 -74 105q0 111 123 111t123 -111q0 -82 -70 -103l220 -660zM405 231l-116 375l-115 -375h231zM289 702q68 0 68 66q0 67 -68 67t-68 -67q0 -66 68 -66z" />
    <glyph glyph-name="AE" unicode="&#xc6;" horiz-adv-x="901" 
d="M850 0h-404v164h-245l-91 -164h-90l398 700h432v-70h-327v-222h268l-7 -70h-261v-268h327v-70zM446 231v376l-210 -376h210z" />
    <glyph glyph-name="Ccedilla" unicode="&#xc7;" horiz-adv-x="561" 
d="M241 -162l14 48q21 -9 48 -9q36 0 36 25q0 30 -62 30l12 58q-112 10 -173 94t-61 266q0 198 71.5 280t202.5 82q127 0 197 -47l-31 -61q-69 39 -162 39q-50 0 -83.5 -11.5t-61.5 -42.5t-41.5 -90t-13.5 -149t13.5 -149t41.5 -90t61.5 -42.5t83.5 -11.5q93 0 162 39
l31 -61q-65 -43 -180 -47l-6 -27q56 -7 56 -60q0 -38 -24.5 -56t-64.5 -18q-29 0 -66 11z" />
    <glyph glyph-name="Egrave" unicode="&#xc8;" horiz-adv-x="529" 
d="M474 0h-404v700h404v-70h-327v-222h268l-7 -70h-261v-268h327v-70zM313 764l-55 -6l-95 171l80 6z" />
    <glyph glyph-name="Eacute" unicode="&#xc9;" horiz-adv-x="529" 
d="M474 0h-404v700h404v-70h-327v-222h268l-7 -70h-261v-268h327v-70zM270 758l-55 6l71 171l79 -6z" />
    <glyph glyph-name="Ecircumflex" unicode="&#xca;" horiz-adv-x="529" 
d="M474 0h-404v700h404v-70h-327v-222h268l-7 -70h-261v-268h327v-70zM412 748l-142 98l-142 -98l-39 34l153 125h57l153 -125z" />
    <glyph glyph-name="Edieresis" unicode="&#xcb;" horiz-adv-x="529" 
d="M474 0h-404v700h404v-70h-327v-222h268l-7 -70h-261v-268h327v-70zM176 757q-46 0 -46 43t46 43t46 -43t-46 -43zM371 757q-46 0 -46 43t46 43t46 -43t-46 -43z" />
    <glyph glyph-name="Igrave" unicode="&#xcc;" horiz-adv-x="217" 
d="M147 0h-77v700h77v-700zM146 763l-55 -6l-95 171l80 6z" />
    <glyph glyph-name="Iacute" unicode="&#xcd;" horiz-adv-x="217" 
d="M147 0h-77v700h77v-700zM121 757l-55 6l71 171l79 -6z" />
    <glyph glyph-name="Icircumflex" unicode="&#xce;" horiz-adv-x="217" 
d="M147 0h-77v700h77v-700zM250 752l-142 98l-142 -98l-39 34l153 125h57l153 -125z" />
    <glyph glyph-name="Idieresis" unicode="&#xcf;" horiz-adv-x="217" 
d="M147 0h-77v700h77v-700zM11 755q-46 0 -46 43t46 43t46 -43t-46 -43zM206 755q-46 0 -46 43t46 43t46 -43t-46 -43z" />
    <glyph glyph-name="Eth" unicode="&#xd0;" horiz-adv-x="686" 
d="M106 0v314h-75v70h75v304q139 24 234 24q67 0 117 -15.5t91.5 -54t63 -111.5t21.5 -181q0 -191 -69 -270.5t-222 -79.5h-236zM183 70h159q116 0 164.5 59t48.5 221q0 88 -14.5 147t-44 90t-65.5 43t-87 12q-80 0 -161 -14v-244h129v-70h-129v-244z" />
    <glyph glyph-name="Ntilde" unicode="&#xd1;" horiz-adv-x="638" 
d="M568 0h-83l-345 581v-581h-70v689l85 17l343 -578v572h70v-700zM533 822q-52 -67 -135 -67q-32 0 -80.5 28t-72.5 28q-49 0 -92 -49l-39 45q52 67 135 67q32 0 80.5 -28t72.5 -28q49 0 92 49z" />
    <glyph glyph-name="Ograve" unicode="&#xd2;" horiz-adv-x="676" 
d="M338 58q64 0 105.5 19t63 60t29 90t7.5 123t-7.5 123t-29 90t-63 60t-105.5 19t-105.5 -19t-63 -60t-29 -90t-7.5 -123t7.5 -123t29 -90t63 -60t105.5 -19zM338 -12q-150 0 -216.5 87t-66.5 275t66.5 275t216.5 87t216.5 -87t66.5 -275t-66.5 -275t-216.5 -87zM378 763
l-55 -6l-95 171l80 6z" />
    <glyph glyph-name="Oacute" unicode="&#xd3;" horiz-adv-x="676" 
d="M338 58q64 0 105.5 19t63 60t29 90t7.5 123t-7.5 123t-29 90t-63 60t-105.5 19t-105.5 -19t-63 -60t-29 -90t-7.5 -123t7.5 -123t29 -90t63 -60t105.5 -19zM338 -12q-150 0 -216.5 87t-66.5 275t66.5 275t216.5 87t216.5 -87t66.5 -275t-66.5 -275t-216.5 -87zM351 757
l-55 6l71 171l79 -6z" />
    <glyph glyph-name="Ocircumflex" unicode="&#xd4;" horiz-adv-x="676" 
d="M338 58q64 0 105.5 19t63 60t29 90t7.5 123t-7.5 123t-29 90t-63 60t-105.5 19t-105.5 -19t-63 -60t-29 -90t-7.5 -123t7.5 -123t29 -90t63 -60t105.5 -19zM338 -12q-150 0 -216.5 87t-66.5 275t66.5 275t216.5 87t216.5 -87t66.5 -275t-66.5 -275t-216.5 -87zM480 753
l-142 98l-142 -98l-39 34l153 125h57l153 -125z" />
    <glyph glyph-name="Otilde" unicode="&#xd5;" horiz-adv-x="676" 
d="M338 58q64 0 105.5 19t63 60t29 90t7.5 123t-7.5 123t-29 90t-63 60t-105.5 19t-105.5 -19t-63 -60t-29 -90t-7.5 -123t7.5 -123t29 -90t63 -60t105.5 -19zM338 -12q-150 0 -216.5 87t-66.5 275t66.5 275t216.5 87t216.5 -87t66.5 -275t-66.5 -275t-216.5 -87zM548 822
q-52 -67 -135 -67q-32 0 -80.5 28t-72.5 28q-49 0 -92 -49l-39 45q52 67 135 67q32 0 80.5 -28t72.5 -28q49 0 92 49z" />
    <glyph glyph-name="Odieresis" unicode="&#xd6;" horiz-adv-x="676" 
d="M338 58q64 0 105.5 19t63 60t29 90t7.5 123t-7.5 123t-29 90t-63 60t-105.5 19t-105.5 -19t-63 -60t-29 -90t-7.5 -123t7.5 -123t29 -90t63 -60t105.5 -19zM338 -12q-150 0 -216.5 87t-66.5 275t66.5 275t216.5 87t216.5 -87t66.5 -275t-66.5 -275t-216.5 -87zM241 757
q-46 0 -46 43t46 43t46 -43t-46 -43zM436 757q-46 0 -46 43t46 43t46 -43t-46 -43z" />
    <glyph glyph-name="multiply" unicode="&#xd7;" 
d="M558 126l-53 -53l-165 166l-165 -165l-52 52l165 165l-166 165l53 53l165 -166l165 165l52 -52l-165 -165z" />
    <glyph glyph-name="Oslash" unicode="&#xd8;" horiz-adv-x="676" 
d="M204 -85h-81l49 113q-117 74 -117 322q0 188 66.5 275t216.5 87q74 0 128 -21l34 79h82l-53 -118q92 -83 92 -302q0 -188 -66.5 -275t-216.5 -87q-53 0 -97 11zM338 58q64 0 105.5 19t63 60t29 90t7.5 123t-7.5 123t-29 90t-63 60t-105.5 19t-105.5 -19t-63 -60t-29 -90
t-7.5 -123t7.5 -123t29 -90t63 -60t105.5 -19z" />
    <glyph glyph-name="Ugrave" unicode="&#xd9;" horiz-adv-x="656" 
d="M591 700v-350q0 -187 -62 -274.5t-201 -87.5q-140 0 -201.5 87t-61.5 275v350h77v-350q0 -154 41.5 -223t145.5 -69t144.5 68.5t40.5 223.5v350h77zM370 764l-55 -6l-95 171l80 6z" />
    <glyph glyph-name="Uacute" unicode="&#xda;" horiz-adv-x="656" 
d="M591 700v-350q0 -187 -62 -274.5t-201 -87.5q-140 0 -201.5 87t-61.5 275v350h77v-350q0 -154 41.5 -223t145.5 -69t144.5 68.5t40.5 223.5v350h77zM342 758l-55 6l71 171l79 -6z" />
    <glyph glyph-name="Ucircumflex" unicode="&#xdb;" horiz-adv-x="656" 
d="M591 700v-350q0 -187 -62 -274.5t-201 -87.5q-140 0 -201.5 87t-61.5 275v350h77v-350q0 -154 41.5 -223t145.5 -69t144.5 68.5t40.5 223.5v350h77zM471 751l-142 98l-142 -98l-39 34l153 125h57l153 -125z" />
    <glyph glyph-name="Udieresis" unicode="&#xdc;" horiz-adv-x="656" 
d="M591 700v-350q0 -187 -62 -274.5t-201 -87.5q-140 0 -201.5 87t-61.5 275v350h77v-350q0 -154 41.5 -223t145.5 -69t144.5 68.5t40.5 223.5v350h77zM232 757q-46 0 -46 43t46 43t46 -43t-46 -43zM427 757q-46 0 -46 43t46 43t46 -43t-46 -43z" />
    <glyph glyph-name="Yacute" unicode="&#xdd;" horiz-adv-x="574" 
d="M323 0h-77v258l-223 432l82 19l180 -377l180 368h86l-228 -442v-258zM301 757l-55 6l71 171l79 -6z" />
    <glyph glyph-name="Thorn" unicode="&#xde;" horiz-adv-x="564" 
d="M147 0h-77v700h77v-121q75 17 135 17q116 0 189 -58t73 -189q0 -63 -22 -109.5t-62 -72.5t-88 -38t-107 -12q-53 0 -118 10v-127zM147 194q51 -9 106 -9q106 0 159.5 35.5t53.5 126.5q0 99 -48.5 139t-135.5 40q-58 0 -135 -18v-314z" />
    <glyph glyph-name="germandbls" unicode="&#xdf;" horiz-adv-x="597" 
d="M224 80q60 -30 121 -30q75 0 108 30t33 99q0 140 -173 140h-12l-8 59q36 5 56.5 10.5t44.5 18.5t35 37t11 60q0 75 -32.5 112.5t-113.5 37.5q-90 0 -120.5 -50t-30.5 -157v-447h-74v447q0 140 53 205t172 65q117 0 168.5 -57.5t51.5 -146.5q0 -69 -36.5 -110t-98.5 -47
q89 -3 136.5 -48.5t47.5 -132.5q0 -93 -53 -140t-150 -47q-101 0 -161 35z" />
    <glyph glyph-name="agrave" unicode="&#xe0;" horiz-adv-x="527" 
d="M414 -6q-13 37 -21 77q-48 -83 -168 -83q-91 0 -133 35t-42 117q0 78 73.5 115.5t260.5 45.5v12q0 149 -130 149q-76 0 -144 -33l-24 60q74 39 168 39q90 0 147 -50t57 -157v-134q0 -108 18 -179zM384 154v86q-135 -6 -198 -28.5t-63 -71.5t24 -70t92 -21q53 0 85.5 25.5
t59.5 79.5zM313 597l-55 -6l-95 171l80 6z" />
    <glyph glyph-name="aacute" unicode="&#xe1;" horiz-adv-x="527" 
d="M414 -6q-13 37 -21 77q-48 -83 -168 -83q-91 0 -133 35t-42 117q0 78 73.5 115.5t260.5 45.5v12q0 149 -130 149q-76 0 -144 -33l-24 60q74 39 168 39q90 0 147 -50t57 -157v-134q0 -108 18 -179zM384 154v86q-135 -6 -198 -28.5t-63 -71.5t24 -70t92 -21q53 0 85.5 25.5
t59.5 79.5zM272 591l-55 6l71 171l79 -6z" />
    <glyph glyph-name="acircumflex" unicode="&#xe2;" horiz-adv-x="527" 
d="M414 -6q-13 37 -21 77q-48 -83 -168 -83q-91 0 -133 35t-42 117q0 78 73.5 115.5t260.5 45.5v12q0 149 -130 149q-76 0 -144 -33l-24 60q74 39 168 39q90 0 147 -50t57 -157v-134q0 -108 18 -179zM384 154v86q-135 -6 -198 -28.5t-63 -71.5t24 -70t92 -21q53 0 85.5 25.5
t59.5 79.5zM407 586l-142 98l-142 -98l-39 34l153 125h57l153 -125z" />
    <glyph glyph-name="atilde" unicode="&#xe3;" horiz-adv-x="527" 
d="M414 -6q-13 37 -21 77q-48 -83 -168 -83q-91 0 -133 35t-42 117q0 78 73.5 115.5t260.5 45.5v12q0 149 -130 149q-76 0 -144 -33l-24 60q74 39 168 39q90 0 147 -50t57 -157v-134q0 -108 18 -179zM384 154v86q-135 -6 -198 -28.5t-63 -71.5t24 -70t92 -21q53 0 85.5 25.5
t59.5 79.5zM474 656q-52 -67 -135 -67q-32 0 -80.5 28t-72.5 28q-49 0 -92 -49l-39 45q52 67 135 67q32 0 80.5 -28t72.5 -28q49 0 92 49z" />
    <glyph glyph-name="adieresis" unicode="&#xe4;" horiz-adv-x="527" 
d="M414 -6q-13 37 -21 77q-48 -83 -168 -83q-91 0 -133 35t-42 117q0 78 73.5 115.5t260.5 45.5v12q0 149 -130 149q-76 0 -144 -33l-24 60q74 39 168 39q90 0 147 -50t57 -157v-134q0 -108 18 -179zM384 154v86q-135 -6 -198 -28.5t-63 -71.5t24 -70t92 -21q53 0 85.5 25.5
t59.5 79.5zM166 611q-46 0 -46 43t46 43t46 -43t-46 -43zM361 611q-46 0 -46 43t46 43t46 -43t-46 -43z" />
    <glyph glyph-name="aring" unicode="&#xe5;" horiz-adv-x="527" 
d="M414 -6q-13 37 -21 77q-48 -83 -168 -83q-91 0 -133 35t-42 117q0 78 73.5 115.5t260.5 45.5v12q0 149 -130 149q-76 0 -144 -33l-24 60q74 39 168 39q90 0 147 -50t57 -157v-134q0 -108 18 -179zM384 154v86q-135 -6 -198 -28.5t-63 -71.5t24 -70t92 -21q53 0 85.5 25.5
t59.5 79.5zM260 588q-123 0 -123 110q0 111 123 111t123 -111q0 -110 -123 -110zM260 632q68 0 68 66q0 67 -68 67t-68 -67q0 -66 68 -66z" />
    <glyph glyph-name="ae" unicode="&#xe6;" horiz-adv-x="851" 
d="M384 154v86q-135 -6 -198 -28.5t-63 -71.5t24 -70t92 -21q53 0 85.5 25.5t59.5 79.5zM458 267l273 26q-1 93 -34.5 132.5t-97.5 39.5q-69 0 -105 -43.5t-36 -143.5v-11zM782 36q-76 -48 -173 -48q-163 0 -194 114q-51 -114 -190 -114q-91 0 -133 35t-42 117
q0 78 73.5 115.5t260.5 45.5v12q0 149 -130 149q-76 0 -144 -33l-24 60q75 39 168 39q138 0 171 -110q18 58 66.5 84t107.5 26q104 0 154.5 -62.5t50.5 -219.5v-9l-344 -28q2 -87 39 -122.5t110 -35.5q79 0 146 40z" />
    <glyph glyph-name="ccedilla" unicode="&#xe7;" horiz-adv-x="441" 
d="M171 -162l14 48q21 -9 48 -9q36 0 36 25q0 30 -62 30l12 60q-86 13 -127.5 77.5t-41.5 188.5q0 140 53 205t166 65q81 0 138 -32l-28 -58q-47 24 -110 24q-79 0 -111.5 -44.5t-32.5 -159.5t32.5 -159.5t111.5 -44.5q63 0 110 24l28 -58q-54 -30 -131 -32l-6 -27
q56 -7 56 -60q0 -38 -24.5 -56t-64.5 -18q-29 0 -66 11z" />
    <glyph glyph-name="egrave" unicode="&#xe8;" horiz-adv-x="517" 
d="M448 34q-70 -46 -173 -46q-111 0 -168 59.5t-57 210.5q0 65 12 114t31 78t48 47t58.5 24.5t65.5 6.5q104 0 154.5 -62.5t50.5 -219.5v-9l-344 -28q2 -87 39 -122.5t110 -35.5q79 0 146 40zM124 267l273 26q-1 93 -34.5 132.5t-97.5 39.5q-69 0 -105 -43.5t-36 -143.5v-11
zM302 597l-55 -6l-95 171l80 6z" />
    <glyph glyph-name="eacute" unicode="&#xe9;" horiz-adv-x="517" 
d="M448 34q-70 -46 -173 -46q-111 0 -168 59.5t-57 210.5q0 65 12 114t31 78t48 47t58.5 24.5t65.5 6.5q104 0 154.5 -62.5t50.5 -219.5v-9l-344 -28q2 -87 39 -122.5t110 -35.5q79 0 146 40zM124 267l273 26q-1 93 -34.5 132.5t-97.5 39.5q-69 0 -105 -43.5t-36 -143.5v-11
zM272 591l-55 6l71 171l79 -6z" />
    <glyph glyph-name="ecircumflex" unicode="&#xea;" horiz-adv-x="517" 
d="M448 34q-70 -46 -173 -46q-111 0 -168 59.5t-57 210.5q0 65 12 114t31 78t48 47t58.5 24.5t65.5 6.5q104 0 154.5 -62.5t50.5 -219.5v-9l-344 -28q2 -87 39 -122.5t110 -35.5q79 0 146 40zM124 267l273 26q-1 93 -34.5 132.5t-97.5 39.5q-69 0 -105 -43.5t-36 -143.5v-11
zM403 586l-142 98l-142 -98l-39 34l153 125h57l153 -125z" />
    <glyph glyph-name="edieresis" unicode="&#xeb;" horiz-adv-x="517" 
d="M448 34q-70 -46 -173 -46q-111 0 -168 59.5t-57 210.5q0 65 12 114t31 78t48 47t58.5 24.5t65.5 6.5q104 0 154.5 -62.5t50.5 -219.5v-9l-344 -28q2 -87 39 -122.5t110 -35.5q79 0 146 40zM124 267l273 26q-1 93 -34.5 132.5t-97.5 39.5q-69 0 -105 -43.5t-36 -143.5v-11
zM161 611q-46 0 -46 43t46 43t46 -43t-46 -43zM356 611q-46 0 -46 43t46 43t46 -43t-46 -43z" />
    <glyph glyph-name="igrave" unicode="&#xec;" horiz-adv-x="224" 
d="M165 0h-71q-19 59 -19 178v328l74 10v-342q0 -111 16 -174zM153 597l-55 -6l-95 171l80 6z" />
    <glyph glyph-name="iacute" unicode="&#xed;" horiz-adv-x="224" 
d="M165 0h-71q-19 59 -19 178v328l74 10v-342q0 -111 16 -174zM122 591l-55 6l71 171l79 -6z" />
    <glyph glyph-name="icircumflex" unicode="&#xee;" horiz-adv-x="224" 
d="M165 0h-71q-19 59 -19 178v328l74 10v-342q0 -111 16 -174zM253 586l-142 98l-142 -98l-39 34l153 125h57l153 -125z" />
    <glyph glyph-name="idieresis" unicode="&#xef;" horiz-adv-x="224" 
d="M165 0h-71q-19 59 -19 178v328l74 10v-342q0 -111 16 -174zM14 611q-46 0 -46 43t46 43t46 -43t-46 -43zM209 611q-46 0 -46 43t46 43t46 -43t-46 -43z" />
    <glyph glyph-name="eth" unicode="&#xf0;" horiz-adv-x="550" 
d="M275 -12q-119 0 -172 65t-53 205t51.5 203.5t170.5 63.5q109 0 157 -80q-33 98 -95 146l-34 -46l-57 34l34 46q-35 17 -102 35l24 70q66 -17 120 -49l36 49l57 -34l-40 -54q128 -114 128 -366v-18q0 -140 -53 -205t-172 -65zM275 51q90 0 120 50t30 157t-30 157t-120 50
t-120 -50t-30 -157t30 -157t120 -50z" />
    <glyph glyph-name="ntilde" unicode="&#xf1;" horiz-adv-x="538" 
d="M476 0h-74v282q0 40 -1.5 63.5t-7.5 49.5t-18 39.5t-33.5 22.5t-53.5 9q-53 0 -85.5 -25.5t-59.5 -78.5v-362h-74v329q0 108 -18 179l62 14q13 -37 21 -77q48 83 168 83q54 0 90 -18.5t53.5 -53t24 -72t6.5 -88.5v-296zM469 656q-52 -67 -135 -67q-32 0 -80.5 28
t-72.5 28q-49 0 -92 -49l-39 45q52 67 135 67q32 0 80.5 -28t72.5 -28q49 0 92 49z" />
    <glyph glyph-name="ograve" unicode="&#xf2;" horiz-adv-x="550" 
d="M275 -12q-119 0 -172 65t-53 205t53 205t172 65t172 -65t53 -205t-53 -205t-172 -65zM275 51q90 0 120 50t30 157t-30 157t-120 50t-120 -50t-30 -157t30 -157t120 -50zM314 597l-55 -6l-95 171l80 6z" />
    <glyph glyph-name="oacute" unicode="&#xf3;" horiz-adv-x="550" 
d="M275 -12q-119 0 -172 65t-53 205t53 205t172 65t172 -65t53 -205t-53 -205t-172 -65zM275 51q90 0 120 50t30 157t-30 157t-120 50t-120 -50t-30 -157t30 -157t120 -50zM285 591l-55 6l71 171l79 -6z" />
    <glyph glyph-name="ocircumflex" unicode="&#xf4;" horiz-adv-x="550" 
d="M275 -12q-119 0 -172 65t-53 205t53 205t172 65t172 -65t53 -205t-53 -205t-172 -65zM275 51q90 0 120 50t30 157t-30 157t-120 50t-120 -50t-30 -157t30 -157t120 -50zM417 586l-142 98l-142 -98l-39 34l153 125h57l153 -125z" />
    <glyph glyph-name="otilde" unicode="&#xf5;" horiz-adv-x="550" 
d="M275 -12q-119 0 -172 65t-53 205t53 205t172 65t172 -65t53 -205t-53 -205t-172 -65zM275 51q90 0 120 50t30 157t-30 157t-120 50t-120 -50t-30 -157t30 -157t120 -50zM485 656q-52 -67 -135 -67q-32 0 -80.5 28t-72.5 28q-49 0 -92 -49l-39 45q52 67 135 67
q32 0 80.5 -28t72.5 -28q49 0 92 49z" />
    <glyph glyph-name="odieresis" unicode="&#xf6;" horiz-adv-x="550" 
d="M275 -12q-119 0 -172 65t-53 205t53 205t172 65t172 -65t53 -205t-53 -205t-172 -65zM275 51q90 0 120 50t30 157t-30 157t-120 50t-120 -50t-30 -157t30 -157t120 -50zM178 611q-46 0 -46 43t46 43t46 -43t-46 -43zM373 611q-46 0 -46 43t46 43t46 -43t-46 -43z" />
    <glyph glyph-name="divide" unicode="&#xf7;" 
d="M580 255h-480v72h480v-72zM340 418q-51 0 -51 52t51 52t51 -52t-51 -52zM340 60q-51 0 -51 52t51 52t51 -52t-51 -52z" />
    <glyph glyph-name="oslash" unicode="&#xf8;" horiz-adv-x="550" 
d="M154 -67h-75l47 96q-77 61 -77 229q0 140 53 205t172 65q49 0 88 -12l33 65h75l-47 -96q76 -60 76 -227q0 -140 -53 -205t-172 -65q-49 0 -88 11zM274 51q90 0 120 50t30 157t-30 157t-120 50t-120 -50t-30 -157t30 -157t120 -50z" />
    <glyph glyph-name="ugrave" unicode="&#xf9;" horiz-adv-x="538" 
d="M425 -6q-13 37 -21 77q-48 -83 -168 -83q-54 0 -90 18.5t-53.5 53t-24 72t-6.5 88.5v286l74 10v-282q0 -40 1.5 -63.5t7.5 -49.5t18 -39.5t33.5 -22.5t53.5 -9q53 0 85.5 25.5t59.5 78.5v352l74 10v-329q0 -108 18 -179zM307 597l-55 -6l-95 171l80 6z" />
    <glyph glyph-name="uacute" unicode="&#xfa;" horiz-adv-x="538" 
d="M425 -6q-13 37 -21 77q-48 -83 -168 -83q-54 0 -90 18.5t-53.5 53t-24 72t-6.5 88.5v286l74 10v-282q0 -40 1.5 -63.5t7.5 -49.5t18 -39.5t33.5 -22.5t53.5 -9q53 0 85.5 25.5t59.5 78.5v352l74 10v-329q0 -108 18 -179zM279 591l-55 6l71 171l79 -6z" />
    <glyph glyph-name="ucircumflex" unicode="&#xfb;" horiz-adv-x="538" 
d="M425 -6q-13 37 -21 77q-48 -83 -168 -83q-54 0 -90 18.5t-53.5 53t-24 72t-6.5 88.5v286l74 10v-282q0 -40 1.5 -63.5t7.5 -49.5t18 -39.5t33.5 -22.5t53.5 -9q53 0 85.5 25.5t59.5 78.5v352l74 10v-329q0 -108 18 -179zM408 586l-142 98l-142 -98l-39 34l153 125h57
l153 -125z" />
    <glyph glyph-name="udieresis" unicode="&#xfc;" horiz-adv-x="538" 
d="M425 -6q-13 37 -21 77q-48 -83 -168 -83q-54 0 -90 18.5t-53.5 53t-24 72t-6.5 88.5v286l74 10v-282q0 -40 1.5 -63.5t7.5 -49.5t18 -39.5t33.5 -22.5t53.5 -9q53 0 85.5 25.5t59.5 78.5v352l74 10v-329q0 -108 18 -179zM171 611q-46 0 -46 43t46 43t46 -43t-46 -43z
M366 611q-46 0 -46 43t46 43t46 -43t-46 -43z" />
    <glyph glyph-name="yacute" unicode="&#xfd;" horiz-adv-x="464" 
d="M112 -169l-32 52q52 26 77 55.5t34 70.5l-171 498l79 15l136 -451l137 451l72 -14l-153 -454q-28 -84 -69.5 -140t-109.5 -83zM247 591l-55 6l71 171l79 -6z" />
    <glyph glyph-name="thorn" unicode="&#xfe;" horiz-adv-x="537" 
d="M144 81q55 -31 126 -31q72 0 107 44t35 164q0 105 -26 156.5t-97 51.5q-53 0 -85.5 -25.5t-59.5 -78.5v-281zM144 -154h-74v862l74 10v-274q47 84 157 84q96 0 141 -67t45 -203q0 -81 -17.5 -136.5t-49 -83.5t-66 -39t-77.5 -11q-77 0 -136 30q3 -34 3 -104v-68z" />
    <glyph glyph-name="ydieresis" unicode="&#xff;" horiz-adv-x="464" 
d="M112 -169l-32 52q52 26 77 55.5t34 70.5l-171 498l79 15l136 -451l137 451l72 -14l-153 -454q-28 -84 -69.5 -140t-109.5 -83zM138 611q-46 0 -46 43t46 43t46 -43t-46 -43zM333 611q-46 0 -46 43t46 43t46 -43t-46 -43z" />
    <glyph glyph-name="dotlessi" unicode="&#x131;" horiz-adv-x="224" 
d="M165 0h-71q-19 59 -19 178v328l74 10v-342q0 -111 16 -174z" />
    <glyph glyph-name="Lslash" unicode="&#x141;" horiz-adv-x="543" 
d="M510 0h-416v302l-60 -26v72l60 26v326h77v-292l123 54v-72l-123 -54v-266h339v-70z" />
    <glyph glyph-name="lslash" unicode="&#x142;" horiz-adv-x="350" 
d="M225 0h-71q-19 59 -19 178v154l-97 -43v73l97 42v304l74 10v-281l103 45v-72l-103 -46v-190q0 -111 16 -174z" />
    <glyph glyph-name="OE" unicode="&#x152;" horiz-adv-x="1001" 
d="M946 0h-389v124q-17 -62 -72.5 -99t-147.5 -37q-150 0 -216 87t-66 275t66 275t216 87q92 0 147.5 -37t72.5 -99v124h389v-70h-327v-222h268l-7 -70h-261v-268h327v-70zM337 58q64 0 105.5 19t63 60t29 90t7.5 123t-7.5 123t-29 90t-63 60t-105.5 19t-105.5 -19t-63 -60
t-29 -90t-7.5 -123t7.5 -123t29 -90t63 -60t105.5 -19z" />
    <glyph glyph-name="oe" unicode="&#x153;" horiz-adv-x="892" 
d="M275 51q90 0 120 50t30 157t-30 157t-120 50t-120 -50t-30 -157t30 -157t120 -50zM823 36q-76 -48 -173 -48q-79 0 -125.5 26t-62.5 90q-36 -116 -187 -116q-119 0 -172 65t-53 205t53 205t172 65q151 0 187 -116q36 116 178 116q104 0 154.5 -62.5t50.5 -219.5v-9
l-344 -28q2 -87 39 -122.5t110 -35.5q79 0 146 40zM499 267l273 26q-1 93 -34.5 132.5t-97.5 39.5q-69 0 -105 -43.5t-36 -143.5v-11z" />
    <glyph glyph-name="Scaron" unicode="&#x160;" horiz-adv-x="562" 
d="M40 51l28 67q99 -60 220 -60q156 0 156 134q0 16 -4.5 29.5t-10 23.5t-18.5 19.5t-21.5 14.5t-28 12.5t-29 10t-33.5 9.5t-33 10q-36 10 -60.5 19t-54.5 26t-48.5 36.5t-31 49.5t-12.5 68q0 96 61 144t159 48q120 0 202 -41l-26 -68q-74 39 -170 39q-149 0 -149 -120
q0 -29 11 -50t37.5 -36t46.5 -22.5t63 -20.5l40 -12.5t37.5 -12.5t40 -16.5t33.5 -19.5t32.5 -25.5l22.5 -30t17.5 -39t4.5 -46.5q0 -101 -62 -152t-170 -51q-150 0 -250 63zM308 759h-57l-153 125l39 34l142 -98l142 98l40 -34z" />
    <glyph glyph-name="scaron" unicode="&#x161;" horiz-adv-x="444" 
d="M64 92q70 -40 164 -40q54 0 81.5 18t27.5 62q0 39 -23 54.5t-91 35.5q-32 9 -51.5 15.5t-44.5 20t-38.5 29.5t-23.5 42t-10 59q0 69 47.5 104.5t121.5 35.5q96 0 157 -34l-25 -58q-52 28 -126 28q-50 0 -76.5 -16.5t-26.5 -63.5q0 -38 28 -56.5t88 -34.5l35 -10t32 -11
t32 -14.5t26 -18.5t23 -25t12.5 -32t5.5 -42q0 -152 -177 -152q-120 0 -192 45zM250 593h-57l-153 125l39 34l142 -98l142 98l40 -34z" />
    <glyph glyph-name="Ydieresis" unicode="&#x178;" horiz-adv-x="574" 
d="M323 0h-77v258l-223 432l82 19l180 -377l180 368h86l-228 -442v-258zM188 783q-46 0 -46 43t46 43t46 -43t-46 -43zM383 783q-46 0 -46 43t46 43t46 -43t-46 -43z" />
    <glyph glyph-name="Zcaron" unicode="&#x17d;" horiz-adv-x="550" 
d="M501 0h-440l-20 70l357 560h-346v70h421l17 -68l-358 -562h377zM301 759h-57l-153 125l39 34l142 -98l142 98l40 -34z" />
    <glyph glyph-name="zcaron" unicode="&#x17e;" horiz-adv-x="464" 
d="M423 0h-375l-13 63l290 390h-275v63h354l12 -63l-288 -390h301zM265 593h-57l-153 125l39 34l142 -98l142 98l40 -34z" />
    <glyph glyph-name="florin" unicode="&#x192;" horiz-adv-x="321" 
d="M182 -140h-74v565h-88v63h86q-7 42 -7 72q0 152 147 152q31 0 61 -8l-12 -63q-21 6 -42 6q-49 0 -66 -21t-17 -71q0 -39 8 -67h120l-7 -63h-109v-565z" />
    <glyph glyph-name="circumflex" unicode="&#x2c6;" horiz-adv-x="443" 
d="M363 586l-142 98l-142 -98l-39 34l153 125h57l153 -125z" />
    <glyph glyph-name="caron" unicode="&#x2c7;" horiz-adv-x="443" 
d="M250 593h-57l-153 125l39 34l142 -98l142 98l40 -34z" />
    <glyph glyph-name="breve" unicode="&#x2d8;" horiz-adv-x="416" 
d="M376 766q-6 -91 -50 -136t-118 -45t-118 45t-50 136l69 6q4 -65 28 -95.5t71 -30.5t71 30.5t28 95.5z" />
    <glyph glyph-name="dotaccent" unicode="&#x2d9;" horiz-adv-x="176" 
d="M88 610q-48 0 -48 43t48 43t48 -43t-48 -43z" />
    <glyph glyph-name="ring" unicode="&#x2da;" horiz-adv-x="325" 
d="M162 586q-123 0 -123 110q0 111 123 111t123 -111q0 -110 -123 -110zM162 630q68 0 68 66q0 67 -68 67t-68 -67q0 -66 68 -66z" />
    <glyph glyph-name="ogonek" unicode="&#x2db;" horiz-adv-x="242" 
d="M186 -113l16 -43q-37 -17 -77 -17t-62.5 20.5t-22.5 58.5q0 56 62 94h61q-36 -27 -51.5 -46.5t-15.5 -43.5q0 -34 38 -34q26 0 52 11z" />
    <glyph glyph-name="tilde" unicode="&#x2dc;" horiz-adv-x="499" 
d="M459 656q-52 -67 -135 -67q-32 0 -80.5 28t-72.5 28q-49 0 -92 -49l-39 45q52 67 135 67q32 0 80.5 -28t72.5 -28q49 0 92 49z" />
    <glyph glyph-name="hungarumlaut" unicode="&#x2dd;" horiz-adv-x="412" 
d="M88 589l-48 18l93 138l76 -8zM252 589l-49 18l92 138l77 -8z" />
    <glyph glyph-name="gravecomb" unicode="&#x300;" horiz-adv-x="1" 
d="M-235 597l-55 -6l-95 171l80 6z" />
    <glyph glyph-name="acutecomb" unicode="&#x301;" horiz-adv-x="1" 
d="M-264 591l-55 6l71 171l79 -6z" />
    <glyph glyph-name="uni0302" unicode="&#x302;" horiz-adv-x="1" 
d="M-132 586l-142 98l-142 -98l-39 34l153 125h57l153 -125z" />
    <glyph glyph-name="tildecomb" unicode="&#x303;" horiz-adv-x="1" 
d="M-64 656q-52 -67 -135 -67q-32 0 -80.5 28t-72.5 28q-49 0 -92 -49l-39 45q52 67 135 67q32 0 80.5 -28t72.5 -28q49 0 92 49z" />
    <glyph glyph-name="uni0308" unicode="&#x308;" horiz-adv-x="1" 
d="M-292 611q-46 0 -46 43t46 43t46 -43t-46 -43zM-97 611q-46 0 -46 43t46 43t46 -43t-46 -43z" />
    <glyph glyph-name="uni030A" unicode="&#x30a;" horiz-adv-x="1" 
d="M-162 588q-123 0 -123 110q0 111 123 111t123 -111q0 -110 -123 -110zM-162 632q68 0 68 66q0 67 -68 67t-68 -67q0 -66 68 -66z" />
    <glyph glyph-name="uni030C" unicode="&#x30c;" horiz-adv-x="1" 
d="M-198 593h-57l-153 125l39 34l142 -98l142 98l40 -34z" />
    <glyph glyph-name="uni0394" unicode="&#x394;" horiz-adv-x="701" 
d="M616 0h-531l-19 68l246 632h77l246 -632zM552 68l-204 541l-203 -541h407z" />
    <glyph glyph-name="uni03A9" unicode="&#x3a9;" horiz-adv-x="796" 
d="M730 0h-260v70q80 27 106.5 92t26.5 188q0 74 -7.5 123t-29 90t-63 60t-105.5 19t-105.5 -19t-63 -60t-29 -90t-7.5 -123q0 -123 26.5 -188t106.5 -92v-70h-260v70h136q-49 41 -68 109t-19 171q0 188 66.5 275t216.5 87t216.5 -87t66.5 -275q0 -103 -19 -171t-68 -109
h136v-70z" />
    <glyph glyph-name="uni03BC" unicode="&#x3bc;" horiz-adv-x="546" 
d="M495 8l-62 -14q-13 37 -21 77q-47 -83 -168 -83q-71 0 -100 40v-182h-74v660l74 10v-282q0 -40 1.5 -63.5t7.5 -49.5t18 -39.5t33.5 -22.5t53.5 -9q53 0 85.5 25.5t59.5 78.5v352l74 10v-329q0 -108 18 -179z" />
    <glyph glyph-name="pi" unicode="&#x3c0;" horiz-adv-x="736" 
d="M620 27l-50 -42q-57 45 -73 103.5t-16 158.5v199h-233v-446h-74v446h-108v70h604l-7 -70h-108v-220q0 -53 2.5 -79t17 -58.5t45.5 -61.5z" />
    <glyph glyph-name="uni2007" unicode="&#x2007;" horiz-adv-x="628" 
 />
    <glyph glyph-name="uni2008" unicode="&#x2008;" horiz-adv-x="232" 
 />
    <glyph glyph-name="uni200B" unicode="&#x200b;" horiz-adv-x="0" 
 />
    <glyph glyph-name="endash" unicode="&#x2013;" horiz-adv-x="576" 
d="M511 255h-445v72h445v-72z" />
    <glyph glyph-name="emdash" unicode="&#x2014;" horiz-adv-x="704" 
d="M638 255h-572v72h572v-72z" />
    <glyph glyph-name="quoteleft" unicode="&#x2018;" horiz-adv-x="222" 
d="M119 397l-83 -5l94 326h56z" />
    <glyph glyph-name="quoteright" unicode="&#x2019;" horiz-adv-x="222" 
d="M92 395h-56l67 321l83 5z" />
    <glyph glyph-name="quotesinglbase" unicode="&#x201a;" horiz-adv-x="222" 
d="M92 -140h-56l67 321l83 5z" />
    <glyph glyph-name="quotedblleft" unicode="&#x201c;" horiz-adv-x="372" 
d="M269 397l-83 -5l94 326h56zM119 397l-83 -5l94 326h56z" />
    <glyph glyph-name="quotedblright" unicode="&#x201d;" horiz-adv-x="372" 
d="M92 395h-56l67 321l83 5zM242 395h-56l67 321l83 5z" />
    <glyph glyph-name="quotedblbase" unicode="&#x201e;" horiz-adv-x="372" 
d="M92 -140h-56l67 321l83 5zM242 -140h-56l67 321l83 5z" />
    <glyph glyph-name="dagger" unicode="&#x2020;" horiz-adv-x="520" 
d="M299 0h-77q0 12 1 83.5l2.5 182.5t2.5 162l-176 -6v72l175 -6q0 30 -1 79.5t-2 86.5t-1 46l74 5q0 -42 -5 -217l176 6v-72l-177 6q1 -59 3 -164l3.5 -179t1.5 -85z" />
    <glyph glyph-name="daggerdbl" unicode="&#x2021;" horiz-adv-x="520" 
d="M299 0h-77q0 5 0.5 41t1.5 90.5t1 80.5q-135 -5 -173 -5v72l175 -6q0 27 0.5 78t0.5 77l-176 -6v72l175 -6q0 30 -1 79.5t-2 86.5t-1 46l74 5q0 -42 -5 -217l176 6v-72l-177 6q0 -26 0.5 -77t0.5 -78l176 6v-72q-22 0 -174 5q5 -180 5 -212z" />
    <glyph glyph-name="bullet" unicode="&#x2022;" horiz-adv-x="284" 
d="M142 236q-89 0 -89 88t89 88t89 -88t-89 -88z" />
    <glyph glyph-name="ellipsis" unicode="&#x2026;" horiz-adv-x="585" 
d="M112 -6q-51 0 -51 52t51 52t51 -52t-51 -52zM292 -6q-51 0 -51 52t51 52t51 -52t-51 -52zM473 -6q-51 0 -51 52t51 52t51 -52t-51 -52z" />
    <glyph glyph-name="perthousand" unicode="&#x2030;" horiz-adv-x="1424" 
d="M242 260q-99 0 -143 54.5t-44 171.5t44 171.5t143 54.5t143 -54.5t44 -171.5t-44 -171.5t-143 -54.5zM242 314q74 0 98.5 41.5t24.5 130.5t-24.5 130.5t-98.5 41.5t-98.5 -41.5t-24.5 -130.5t24.5 -130.5t98.5 -41.5zM756 -12q-99 0 -143 54.5t-44 171.5t44 171.5
t143 54.5t143 -54.5t44 -171.5t-44 -171.5t-143 -54.5zM756 42q74 0 98.5 41.5t24.5 130.5t-24.5 130.5t-98.5 41.5t-98.5 -41.5t-24.5 -130.5t24.5 -130.5t98.5 -41.5zM374 -9l-52 18l298 700l52 -18zM1182 -12q-99 0 -143 54.5t-44 171.5t44 171.5t143 54.5t143 -54.5
t44 -171.5t-44 -171.5t-143 -54.5zM1182 42q74 0 98.5 41.5t24.5 130.5t-24.5 130.5t-98.5 41.5t-98.5 -41.5t-24.5 -130.5t24.5 -130.5t98.5 -41.5z" />
    <glyph glyph-name="guilsinglleft" unicode="&#x2039;" horiz-adv-x="394" 
d="M306 71l-251 182v62l251 182l34 -61l-224 -152l224 -153z" />
    <glyph glyph-name="guilsinglright" unicode="&#x203a;" horiz-adv-x="394" 
d="M339 253l-251 -182l-34 60l224 153l-224 152l34 61l251 -182v-62z" />
    <glyph glyph-name="fraction" unicode="&#x2044;" horiz-adv-x="125" 
d="M235 692l-298 -701l-47 19l298 701z" />
    <glyph glyph-name="uni2070" unicode="&#x2070;" horiz-adv-x="408" 
d="M204 298q-79 0 -113.5 49t-34.5 155t34.5 155.5t113.5 49.5t113.5 -49.5t34.5 -155.5t-34.5 -155t-113.5 -49zM204 653q-55 0 -71.5 -34.5t-16.5 -116.5q0 -81 16.5 -115.5t71.5 -34.5t71.5 34.5t16.5 115.5q0 82 -16.5 116.5t-71.5 34.5z" />
    <glyph glyph-name="uni2074" unicode="&#x2074;" horiz-adv-x="382" 
d="M281 305h-59v102h-165l-16 52q31 50 42 107t15 137l64 -6q-16 -155 -62 -239h122v144l59 8v-152h49v-51h-49v-102z" />
    <glyph glyph-name="uni2075" unicode="&#x2075;" horiz-adv-x="368" 
d="M64 382q48 -30 111 -30q84 0 84 79q0 64 -79 64q-39 0 -97 -17l-28 54l19 168h212v-54h-161l-14 -110q33 12 70 12q58 0 98.5 -27.5t40.5 -94.5q0 -53 -33.5 -90.5t-108.5 -37.5q-86 0 -137 34z" />
    <glyph glyph-name="uni2076" unicode="&#x2076;" horiz-adv-x="387" 
d="M112 528q36 41 104 41q57 0 90.5 -34.5t33.5 -95.5q0 -62 -34 -101.5t-105 -39.5q-79 0 -114 49.5t-35 154.5q0 205 146 205q78 0 115 -24l-21 -50q-37 20 -84 20q-53 0 -73.5 -29.5t-22.5 -95.5zM114 467q1 -62 21 -88.5t66 -26.5q81 0 81 91q0 75 -78 75
q-28 0 -53.5 -14t-36.5 -37z" />
    <glyph glyph-name="uni2077" unicode="&#x2077;" horiz-adv-x="340" 
d="M170 305h-63q8 116 35.5 198.5t89.5 142.5h-187v54h242l10 -54q-69 -53 -95.5 -137t-31.5 -204z" />
    <glyph glyph-name="uni2078" unicode="&#x2078;" horiz-adv-x="389" 
d="M272 504q65 -20 65 -91q0 -52 -35.5 -83.5t-105.5 -31.5q-76 0 -110 32.5t-34 86.5q0 70 66 92q-55 16 -55 86q0 47 33.5 79.5t99.5 32.5t99.5 -32.5t33.5 -79.5q0 -70 -57 -91zM279 410q0 33 -25.5 46t-84.5 24l-9 2q-50 -17 -50 -62q0 -71 86 -71q83 0 83 61zM225 524
q46 20 46 65q0 67 -75 67t-75 -59q0 -16 6 -28t13.5 -18.5t24 -12.5t27 -8t33.5 -6z" />
    <glyph glyph-name="uni2079" unicode="&#x2079;" horiz-adv-x="386" 
d="M273 477q-36 -41 -104 -41q-57 0 -90.5 34.5t-33.5 95.5q0 62 34 101.5t105 39.5q79 0 114 -49.5t35 -154.5q0 -205 -146 -205q-78 0 -115 24l21 50q37 -20 84 -20q53 0 73.5 29.5t22.5 95.5zM271 538q-1 62 -21 88.5t-66 26.5q-81 0 -81 -91q0 -75 78 -75q28 0 53.5 14
t36.5 37z" />
    <glyph glyph-name="uni2080" unicode="&#x2080;" horiz-adv-x="408" 
d="M204 -204q-79 0 -113.5 49t-34.5 155t34.5 155.5t113.5 49.5t113.5 -49.5t34.5 -155.5t-34.5 -155t-113.5 -49zM204 151q-55 0 -71.5 -34.5t-16.5 -116.5q0 -81 16.5 -115.5t71.5 -34.5t71.5 34.5t16.5 115.5q0 82 -16.5 116.5t-71.5 34.5z" />
    <glyph glyph-name="uni2081" unicode="&#x2081;" horiz-adv-x="206" 
d="M133 -197h-59v387l59 8v-395z" />
    <glyph glyph-name="uni2082" unicode="&#x2082;" horiz-adv-x="360" 
d="M305 -197h-241l-11 54l73 52.5t58 49t46 58t14 59.5q0 41 -18 58t-60 17q-52 0 -98 -26l-19 51q47 29 132 29q59 0 92 -31t33 -84q0 -64 -41.5 -118.5t-128.5 -114.5h169v-54z" />
    <glyph glyph-name="uni2083" unicode="&#x2083;" horiz-adv-x="369" 
d="M65 -120q49 -30 112 -30q83 0 83 76q0 63 -76 63q-20 0 -30 -1l-29 -4l-14 54l120 106h-176v54h239l13 -54l-132 -111q12 2 19 2q127 -1 127 -111q0 -54 -33 -91t-109 -37q-87 0 -136 34z" />
    <glyph glyph-name="uni2084" unicode="&#x2084;" horiz-adv-x="382" 
d="M281 -197h-59v102h-165l-16 52q31 50 42 107t15 137l64 -6q-16 -155 -62 -239h122v144l59 8v-152h49v-51h-49v-102z" />
    <glyph glyph-name="uni2085" unicode="&#x2085;" horiz-adv-x="368" 
d="M64 -120q48 -30 111 -30q84 0 84 79q0 64 -79 64q-39 0 -97 -17l-28 54l19 168h212v-54h-161l-14 -110q33 12 70 12q58 0 98.5 -27.5t40.5 -94.5q0 -53 -33.5 -90.5t-108.5 -37.5q-86 0 -137 34z" />
    <glyph glyph-name="uni2086" unicode="&#x2086;" horiz-adv-x="387" 
d="M112 26q36 41 104 41q57 0 90.5 -34.5t33.5 -95.5q0 -62 -34 -101.5t-105 -39.5q-79 0 -114 49.5t-35 154.5q0 205 146 205q78 0 115 -24l-21 -50q-37 20 -84 20q-53 0 -73.5 -29.5t-22.5 -95.5zM114 -35q1 -62 21 -88.5t66 -26.5q81 0 81 91q0 75 -78 75
q-28 0 -53.5 -14t-36.5 -37z" />
    <glyph glyph-name="uni2087" unicode="&#x2087;" horiz-adv-x="340" 
d="M170 -197h-63q8 116 35.5 198.5t89.5 142.5h-187v54h242l10 -54q-69 -53 -95.5 -137t-31.5 -204z" />
    <glyph glyph-name="uni2088" unicode="&#x2088;" horiz-adv-x="389" 
d="M272 2q65 -20 65 -91q0 -52 -35.5 -83.5t-105.5 -31.5q-76 0 -110 32.5t-34 86.5q0 70 66 92q-55 16 -55 86q0 47 33.5 79.5t99.5 32.5t99.5 -32.5t33.5 -79.5q0 -70 -57 -91zM279 -92q0 33 -25.5 46t-84.5 24l-9 2q-50 -17 -50 -62q0 -71 86 -71q83 0 83 61zM225 22
q46 20 46 65q0 67 -75 67t-75 -59q0 -16 6 -28t13.5 -18.5t24 -12.5t27 -8t33.5 -6z" />
    <glyph glyph-name="uni2089" unicode="&#x2089;" horiz-adv-x="386" 
d="M273 -25q-36 -41 -104 -41q-57 0 -90.5 34.5t-33.5 95.5q0 62 34 101.5t105 39.5q79 0 114 -49.5t35 -154.5q0 -205 -146 -205q-78 0 -115 24l21 50q37 -20 84 -20q53 0 73.5 29.5t22.5 95.5zM271 36q-1 62 -21 88.5t-66 26.5q-81 0 -81 -91q0 -75 78 -75q28 0 53.5 14
t36.5 37z" />
    <glyph glyph-name="Euro" unicode="&#x20ac;" horiz-adv-x="575" 
d="M495 87l31 -63q-62 -36 -165 -36q-115 0 -175.5 66.5t-74.5 200.5h-70v56h66v39q0 6 0.5 19t0.5 17h-67v56h70q6 60 21 106t43 84.5t75 59t111 20.5q103 0 165 -36l-31 -63q-54 30 -122 30q-87 0 -131 -46t-53 -155h217v-56h-220q-1 -7 -1 -38q0 -32 1 -37h220v-56h-216
q5 -102 49 -150t130 -48q72 0 126 30z" />
    <glyph glyph-name="trademark" unicode="&#x2122;" horiz-adv-x="658" 
d="M184 399h-43v260h-96v41h234v-41h-95v-260zM551 396l-15 230l-68 -227h-40l-76 227l-10 -227h-45l24 301h49l78 -239l70 239h53l24 -300z" />
    <glyph glyph-name="Omega" unicode="&#x2126;" horiz-adv-x="796" 
d="M730 0h-260v70q80 27 106.5 92t26.5 188q0 74 -7.5 123t-29 90t-63 60t-105.5 19t-105.5 -19t-63 -60t-29 -90t-7.5 -123q0 -123 26.5 -188t106.5 -92v-70h-260v70h136q-49 41 -68 109t-19 171q0 188 66.5 275t216.5 87t216.5 -87t66.5 -275q0 -103 -19 -171t-68 -109
h136v-70z" />
    <glyph glyph-name="partialdiff" unicode="&#x2202;" horiz-adv-x="582" 
d="M291 -12q-119 0 -172 65t-53 205t51.5 203.5t170.5 63.5q109 0 157 -80q-17 53 -42.5 91t-60.5 61.5t-68.5 37t-82.5 25.5l24 70q89 -23 150.5 -68.5t93 -109t44.5 -129.5t13 -147v-18q0 -140 -53 -205t-172 -65zM291 51q90 0 120 50t30 157t-30 157t-120 50t-120 -50
t-30 -157t30 -157t120 -50z" />
    <glyph glyph-name="Delta" unicode="&#x2206;" horiz-adv-x="701" 
d="M616 0h-531l-19 68l246 632h77l246 -632zM552 68l-204 541l-203 -541h407z" />
    <glyph glyph-name="product" unicode="&#x220f;" horiz-adv-x="621" 
d="M551 -140h-77v770h-327v-770h-77v840h481v-840z" />
    <glyph glyph-name="summation" unicode="&#x2211;" horiz-adv-x="565" 
d="M499 -140h-416l-17 70l266 350l-266 350l17 70h416v-70h-336l244 -326v-48l-244 -326h336v-70z" />
    <glyph glyph-name="minus" unicode="&#x2212;" 
d="M580 255h-480v72h480v-72z" />
    <glyph glyph-name="uni2219" unicode="&#x2219;" 
d="M340 202q-89 0 -89 88t89 88t89 -88t-89 -88z" />
    <glyph glyph-name="radical" unicode="&#x221a;" horiz-adv-x="782" 
d="M440 -139h-78l-132 394h-164v72h222l115 -371l233 748l80 -10z" />
    <glyph glyph-name="infinity" unicode="&#x221e;" horiz-adv-x="886" 
d="M443 210q-24 -54 -69.5 -83t-103.5 -29q-89 0 -146 50t-57 143q0 94 56.5 144t146.5 50q117 0 173 -117q54 117 173 117q90 0 146.5 -50t56.5 -144q0 -93 -57 -143t-146 -50q-59 0 -104 29.5t-69 82.5zM474 291q38 -134 142 -134q61 0 100.5 35.5t39.5 98.5
q0 64 -39.5 99.5t-100.5 35.5q-53 0 -90 -37t-52 -98zM412 290q-46 136 -142 136q-60 0 -100 -35t-40 -98q0 -64 39.5 -100t100.5 -36q56 0 92.5 36t49.5 97z" />
    <glyph glyph-name="integral" unicode="&#x222b;" horiz-adv-x="414" 
d="M66 -70h55q49 0 49 65v570q0 67 28.5 101t94.5 34h55v-70h-55q-49 0 -49 -65v-570q0 -67 -28.5 -101t-94.5 -34h-55v70z" />
    <glyph glyph-name="approxequal" unicode="&#x2248;" 
d="M580 368q-67 -33 -131 -33q-48 0 -114.5 24.5t-106.5 24.5q-48 0 -128 -37v70q67 34 128 34q47 0 114.5 -25t106.5 -25q58 0 131 37v-70zM580 164q-67 -33 -131 -33q-48 0 -114.5 24.5t-106.5 24.5q-48 0 -128 -37v70q67 34 128 34q47 0 114.5 -25t106.5 -25q58 0 131 37
v-70z" />
    <glyph glyph-name="notequal" unicode="&#x2260;" 
d="M441 520l-27 -92h166v-70h-187l-39 -134h226v-70h-246l-30 -103h-71l30 103h-163v70h184l39 134h-223v70h244l27 92h70z" />
    <glyph glyph-name="lessequal" unicode="&#x2264;" 
d="M580 0h-480v70h480v-70zM544 127l-444 198v60l444 198l36 -72l-405 -156l405 -157z" />
    <glyph glyph-name="greaterequal" unicode="&#x2265;" 
d="M580 0h-480v70h480v-70zM136 127l-36 72l405 156l-405 157l36 71l444 -198v-60z" />
    <glyph glyph-name="dotmath" unicode="&#x22c5;" 
d="M340 239q-51 0 -51 52t51 52t51 -52t-51 -52z" />
    <glyph glyph-name="lozenge" unicode="&#x25ca;" horiz-adv-x="698" 
d="M388 0h-78l-244 350l244 350h78l244 -350zM351 70l190 277l-194 283l-190 -277z" />
    <glyph glyph-name="zero.numr" horiz-adv-x="408" 
d="M204 298q-79 0 -113.5 49t-34.5 155t34.5 155.5t113.5 49.5t113.5 -49.5t34.5 -155.5t-34.5 -155t-113.5 -49zM204 653q-55 0 -71.5 -34.5t-16.5 -116.5q0 -81 16.5 -115.5t71.5 -34.5t71.5 34.5t16.5 115.5q0 82 -16.5 116.5t-71.5 34.5z" />
    <glyph glyph-name="one.numr" horiz-adv-x="206" 
d="M133 305h-59v387l59 8v-395z" />
    <glyph glyph-name="two.numr" horiz-adv-x="360" 
d="M305 305h-241l-11 54l73 52.5t58 49t46 58t14 59.5q0 41 -18 58t-60 17q-52 0 -98 -26l-19 51q47 29 132 29q59 0 92 -31t33 -84q0 -64 -41.5 -118.5t-128.5 -114.5h169v-54z" />
    <glyph glyph-name="three.numr" horiz-adv-x="369" 
d="M65 382q49 -30 112 -30q83 0 83 76q0 63 -76 63q-20 0 -30 -1l-29 -4l-14 54l120 106h-176v54h239l13 -54l-132 -111q12 2 19 2q127 -1 127 -111q0 -54 -33 -91t-109 -37q-87 0 -136 34z" />
    <glyph glyph-name="four.numr" horiz-adv-x="382" 
d="M281 305h-59v102h-165l-16 52q31 50 42 107t15 137l64 -6q-16 -155 -62 -239h122v144l59 8v-152h49v-51h-49v-102z" />
    <glyph glyph-name="five.numr" horiz-adv-x="368" 
d="M64 382q48 -30 111 -30q84 0 84 79q0 64 -79 64q-39 0 -97 -17l-28 54l19 168h212v-54h-161l-14 -110q33 12 70 12q58 0 98.5 -27.5t40.5 -94.5q0 -53 -33.5 -90.5t-108.5 -37.5q-86 0 -137 34z" />
    <glyph glyph-name="six.numr" horiz-adv-x="387" 
d="M112 528q36 41 104 41q57 0 90.5 -34.5t33.5 -95.5q0 -62 -34 -101.5t-105 -39.5q-79 0 -114 49.5t-35 154.5q0 205 146 205q78 0 115 -24l-21 -50q-37 20 -84 20q-53 0 -73.5 -29.5t-22.5 -95.5zM114 467q1 -62 21 -88.5t66 -26.5q81 0 81 91q0 75 -78 75
q-28 0 -53.5 -14t-36.5 -37z" />
    <glyph glyph-name="seven.numr" horiz-adv-x="340" 
d="M170 305h-63q8 116 35.5 198.5t89.5 142.5h-187v54h242l10 -54q-69 -53 -95.5 -137t-31.5 -204z" />
    <glyph glyph-name="eight.numr" horiz-adv-x="389" 
d="M272 504q65 -20 65 -91q0 -52 -35.5 -83.5t-105.5 -31.5q-76 0 -110 32.5t-34 86.5q0 70 66 92q-55 16 -55 86q0 47 33.5 79.5t99.5 32.5t99.5 -32.5t33.5 -79.5q0 -70 -57 -91zM279 410q0 33 -25.5 46t-84.5 24l-9 2q-50 -17 -50 -62q0 -71 86 -71q83 0 83 61zM225 524
q46 20 46 65q0 67 -75 67t-75 -59q0 -16 6 -28t13.5 -18.5t24 -12.5t27 -8t33.5 -6z" />
    <glyph glyph-name="nine.numr" horiz-adv-x="386" 
d="M273 477q-36 -41 -104 -41q-57 0 -90.5 34.5t-33.5 95.5q0 62 34 101.5t105 39.5q79 0 114 -49.5t35 -154.5q0 -205 -146 -205q-78 0 -115 24l21 50q37 -20 84 -20q53 0 73.5 29.5t22.5 95.5zM271 538q-1 62 -21 88.5t-66 26.5q-81 0 -81 -91q0 -75 78 -75q28 0 53.5 14
t36.5 37z" />
    <glyph glyph-name="zero.dnom" horiz-adv-x="408" 
d="M204 -7q-79 0 -113.5 49t-34.5 155t34.5 155.5t113.5 49.5t113.5 -49.5t34.5 -155.5t-34.5 -155t-113.5 -49zM204 348q-55 0 -71.5 -34.5t-16.5 -116.5q0 -81 16.5 -115.5t71.5 -34.5t71.5 34.5t16.5 115.5q0 82 -16.5 116.5t-71.5 34.5z" />
    <glyph glyph-name="one.dnom" horiz-adv-x="206" 
d="M133 0h-59v387l59 8v-395z" />
    <glyph glyph-name="two.dnom" horiz-adv-x="360" 
d="M305 0h-241l-11 54l73 52.5t58 49t46 58t14 59.5q0 41 -18 58t-60 17q-52 0 -98 -26l-19 51q47 29 132 29q59 0 92 -31t33 -84q0 -64 -41.5 -118.5t-128.5 -114.5h169v-54z" />
    <glyph glyph-name="three.dnom" horiz-adv-x="369" 
d="M65 77q49 -30 112 -30q83 0 83 76q0 63 -76 63q-20 0 -30 -1l-29 -4l-14 54l120 106h-176v54h239l13 -54l-132 -111q12 2 19 2q127 -1 127 -111q0 -54 -33 -91t-109 -37q-87 0 -136 34z" />
    <glyph glyph-name="four.dnom" horiz-adv-x="382" 
d="M281 0h-59v102h-165l-16 52q31 50 42 107t15 137l64 -6q-16 -155 -62 -239h122v144l59 8v-152h49v-51h-49v-102z" />
    <glyph glyph-name="five.dnom" horiz-adv-x="368" 
d="M64 77q48 -30 111 -30q84 0 84 79q0 64 -79 64q-39 0 -97 -17l-28 54l19 168h212v-54h-161l-14 -110q33 12 70 12q58 0 98.5 -27.5t40.5 -94.5q0 -53 -33.5 -90.5t-108.5 -37.5q-86 0 -137 34z" />
    <glyph glyph-name="six.dnom" horiz-adv-x="387" 
d="M112 223q36 41 104 41q57 0 90.5 -34.5t33.5 -95.5q0 -62 -34 -101.5t-105 -39.5q-79 0 -114 49.5t-35 154.5q0 205 146 205q78 0 115 -24l-21 -50q-37 20 -84 20q-53 0 -73.5 -29.5t-22.5 -95.5zM114 162q1 -62 21 -88.5t66 -26.5q81 0 81 91q0 75 -78 75
q-28 0 -53.5 -14t-36.5 -37z" />
    <glyph glyph-name="seven.dnom" horiz-adv-x="340" 
d="M170 0h-63q8 116 35.5 198.5t89.5 142.5h-187v54h242l10 -54q-69 -53 -95.5 -137t-31.5 -204z" />
    <glyph glyph-name="eight.dnom" horiz-adv-x="389" 
d="M272 199q65 -20 65 -91q0 -52 -35.5 -83.5t-105.5 -31.5q-76 0 -110 32.5t-34 86.5q0 70 66 92q-55 16 -55 86q0 47 33.5 79.5t99.5 32.5t99.5 -32.5t33.5 -79.5q0 -70 -57 -91zM279 105q0 33 -25.5 46t-84.5 24l-9 2q-50 -17 -50 -62q0 -71 86 -71q83 0 83 61zM225 219
q46 20 46 65q0 67 -75 67t-75 -59q0 -16 6 -28t13.5 -18.5t24 -12.5t27 -8t33.5 -6z" />
    <glyph glyph-name="nine.dnom" horiz-adv-x="386" 
d="M273 172q-36 -41 -104 -41q-57 0 -90.5 34.5t-33.5 95.5q0 62 34 101.5t105 39.5q79 0 114 -49.5t35 -154.5q0 -205 -146 -205q-78 0 -115 24l21 50q37 -20 84 -20q53 0 73.5 29.5t22.5 95.5zM271 233q-1 62 -21 88.5t-66 26.5q-81 0 -81 -91q0 -75 78 -75q28 0 53.5 14
t36.5 37z" />
    <glyph glyph-name="numbersign.tf" 
d="M404 0h-74l34 170h-121l-32 -170h-75l34 170h-141l13 66h141l45 228h-141l14 66h140l31 170h77l-34 -170h120l32 170h76l-32 -170h140l-14 -66h-140l-47 -228h142l-13 -66h-142zM376 236l46 228h-120l-46 -228h120z" />
    <glyph glyph-name="dollar.tf" 
d="M373 -117h-64v107q-136 6 -230 61l30 66q113 -59 238 -59q175 0 175 134q0 23 -12 41.5t-25.5 29.5t-44.5 22.5t-47 16t-55 14.5q-42 11 -64.5 17.5t-61 24t-59 36.5t-37 52t-16.5 74q0 89 57 137t152 54v106h64v-106q103 -5 182 -40l-28 -67q-77 38 -183 38
q-167 0 -167 -120q0 -24 11 -43.5t24 -31t42.5 -23.5t46.5 -17l57 -16l50.5 -13.5t47 -15.5t46.5 -20t38 -24.5t33 -32.5t19 -41.5t8 -52.5q0 -95 -60.5 -146t-166.5 -56v-106z" />
    <glyph glyph-name="zero.tf" 
d="M340 -12q-147 0 -212.5 87.5t-65.5 274.5t65.5 274.5t212.5 87.5t212.5 -87.5t65.5 -274.5t-65.5 -274.5t-212.5 -87.5zM340 58q63 0 103.5 19t61 60t28 90t7.5 123t-7.5 123t-28 90t-61 60t-103.5 19t-103.5 -19t-61 -60t-28 -89.5t-7.5 -123.5t7.5 -123.5t28 -89.5
t61 -60t103.5 -19z" />
    <glyph glyph-name="one.tf" 
d="M134 0v70h196v545l-190 -18l-11 65l278 38v-630h173v-70h-446z" />
    <glyph glyph-name="two.tf" 
d="M594 0h-484l-16 70q91 57 153.5 102t120 99t86 110t28.5 114q0 79 -43.5 113t-130.5 34q-102 0 -190 -47l-30 64q95 53 240 53q112 0 174 -55t62 -146q0 -120 -88.5 -224t-269.5 -217h388v-70z" />
    <glyph glyph-name="three.tf" 
d="M337 -12q-156 0 -255 58l31 65q97 -53 219 -53q187 0 187 160q0 130 -184 130q-46 0 -102 -7l-22 71l254 218h-365v70h448l19 -70l-267 -223q25 4 46 4q126 0 189 -55t63 -145q0 -97 -63.5 -160t-197.5 -63z" />
    <glyph glyph-name="four.tf" 
d="M496 0h-77v190h-330l-23 67q64 101 87 200t32 247l82 -9q-29 -284 -122 -438h274v276l77 11v-287h131v-67h-131v-190z" />
    <glyph glyph-name="five.tf" 
d="M338 -12q-152 0 -255 60l30 66q101 -56 220 -56q91 0 139.5 37t48.5 123q0 140 -184 140q-96 0 -187 -31l-40 69l36 304h390v-70h-326l-29 -226q74 23 160 23q41 0 77.5 -7t70 -23t58 -40.5t39 -61.5t14.5 -84q0 -97 -63 -160t-199 -63z" />
    <glyph glyph-name="six.tf" 
d="M153 379q75 89 225 89q107 0 172 -61.5t65 -169.5q0 -111 -64 -180t-197 -69q-148 0 -213.5 87.5t-65.5 274.5q0 182 70.5 272t202.5 90q127 0 209 -41l-32 -65q-72 36 -164 36q-110 0 -158 -65.5t-50 -197.5zM154 297q4 -128 50 -183.5t151 -55.5q184 0 184 185
q0 80 -47 118.5t-127 38.5q-141 0 -211 -103z" />
    <glyph glyph-name="seven.tf" 
d="M311 0h-85q22 391 293 630h-433v70h505l16 -70q-146 -108 -218 -271t-78 -359z" />
    <glyph glyph-name="eight.tf" 
d="M475 348q62 -18 97 -58.5t35 -101.5q0 -90 -67 -145t-198 -55q-135 0 -201.5 58.5t-66.5 150.5q0 55 34 101t98 65q-55 19 -84 59.5t-29 97.5q0 82 64 137t185 55q122 0 186.5 -57.5t64.5 -139.5q0 -125 -118 -167zM342 57q187 0 187 125q0 27 -12 48t-29 34t-48.5 24
t-58 17t-70.5 14l-44 8q-115 -29 -115 -127q0 -143 190 -143zM411 375q105 37 105 133q0 135 -174 135q-172 0 -172 -122q0 -28 11 -49.5t26.5 -34t42.5 -22.5t49 -15l57 -12.5t55 -12.5z" />
    <glyph glyph-name="nine.tf" 
d="M527 321q-75 -89 -225 -89q-107 0 -172 61.5t-65 169.5q0 111 64 180t197 69q148 0 213.5 -87.5t65.5 -274.5q0 -182 -70.5 -272t-202.5 -90q-127 0 -209 41l32 65q72 -36 164 -36q110 0 158 65.5t50 197.5zM526 403q-4 128 -50 183.5t-151 55.5q-184 0 -184 -185
q0 -80 47 -118.5t127 -38.5q141 0 211 103z" />
    <glyph glyph-name="cent.tf" 
d="M338 -112v103q-105 10 -149 73.5t-44 193.5t43.5 193.5t149.5 73.5v103h61v-100q81 -3 137 -32l-26 -59q-51 25 -129 25q-92 0 -126.5 -44t-34.5 -160q0 -117 34 -160.5t127 -43.5q78 0 129 25l26 -59q-56 -29 -137 -32v-100h-61z" />
    <glyph glyph-name="sterling.tf" 
d="M599 0h-453l-16 70q70 74 70 168q0 45 -5 79h-103v68h92q-22 99 -22 156q0 87 62 129t158 42q119 0 201 -45l-32 -63q-74 38 -164 38q-145 0 -145 -108q0 -53 20 -149h201v-68h-191q4 -33 4 -73q0 -105 -59 -174h382v-70z" />
    <glyph glyph-name="yen.tf" 
d="M376 0h-77v144h-167v56h167v70h-167v56h138l-215 364l82 19l201 -362l201 353h86l-222 -374h143v-56h-170v-70h170v-56h-170v-144z" />
    <glyph glyph-name="section.tf" 
d="M496 119q26 -15 40.5 -44.5t14.5 -63.5q0 -82 -61 -122.5t-151 -40.5q-122 0 -208 48l32 60q77 -41 169 -41q66 0 104 20t38 72q0 19 -7.5 33.5t-17 24t-30.5 18.5t-33.5 13t-42.5 12t-42 12l-50 15.5t-45.5 17t-44.5 23.5t-33 29t-24.5 39.5t-7.5 50.5q0 98 85 147
q-52 28 -52 107q0 82 61 122.5t151 40.5q122 0 208 -48l-32 -60q-77 41 -169 41q-66 0 -104 -20t-38 -72q0 -19 7.5 -33.5t17 -24t30.5 -18.5t33.5 -13t42.5 -12t42 -12l50 -15.5t45.5 -17t44.5 -23.5t33 -29t24.5 -39.5t7.5 -50.5q0 -104 -88 -146zM434 156q75 27 75 95
q0 22 -10 40t-21 28t-36.5 20.5t-39.5 14.5l-46 13q-76 21 -110 37q-75 -27 -75 -95q0 -22 10 -40t21 -28t36.5 -20.5t39.5 -14.5l46 -13q76 -21 110 -37z" />
    <glyph glyph-name="uni2007.tf" 
 />
    <glyph glyph-name="Euro.tf" 
d="M575 87l29 -63q-66 -36 -174 -36q-123 0 -188.5 66.5t-81.5 200.5h-77v56h72q0 33 2 75h-74v56h77q13 125 75.5 197.5t194.5 72.5q108 0 174 -36l-29 -63q-54 30 -132 30q-100 0 -145.5 -46t-59.5 -155h240v-56h-244q-2 -26 -2 -44q0 -6 0.5 -16.5t0.5 -14.5h245v-56
h-240q11 -103 56.5 -150.5t144.5 -47.5q82 0 136 30z" />
    <glyph glyph-name="parenleft.case" horiz-adv-x="288" 
d="M241 -56l-55 -33q-146 208 -146 439t146 439l55 -33q-67 -92 -98.5 -187.5t-31.5 -218.5t31.5 -218.5t98.5 -187.5z" />
    <glyph glyph-name="parenright.case" horiz-adv-x="288" 
d="M102 -89l-55 33q67 92 98.5 187.5t31.5 218.5t-31.5 218.5t-98.5 187.5l55 33q146 -208 146 -439t-146 -439z" />
    <glyph glyph-name="hyphen.case" horiz-adv-x="443" 
d="M377 314h-311v72h311v-72z" />
    <glyph glyph-name="bracketleft.case" horiz-adv-x="319" 
d="M264 -79h-196v858h196v-65h-126v-728h126v-65z" />
    <glyph glyph-name="bracketright.case" horiz-adv-x="319" 
d="M251 -79h-196v65h126v728h-126v65h196v-858z" />
    <glyph glyph-name="braceleft.case" horiz-adv-x="357" 
d="M297 -81q-40 0 -68.5 6t-55 22t-40 49t-13.5 84q0 131 -18 183t-72 56l-5 63q23 2 39 9t26.5 23.5t16.5 31.5t8.5 46.5t3 54.5t0.5 68q0 97 44 131t134 34v-64q-35 0 -53.5 -3.5t-33 -16t-19.5 -37t-5 -67.5q0 -115 -17 -170.5t-66 -71.5q49 -16 66 -72t17 -173
q0 -79 22 -100.5t89 -21.5v-64z" />
    <glyph glyph-name="braceright.case" horiz-adv-x="357" 
d="M60 -81v64q67 0 89 21.5t22 100.5q0 117 17 173t66 72q-49 16 -66 71.5t-17 170.5q0 43 -5 67.5t-19.5 37t-33 16t-53.5 3.5v64q90 0 134 -34t44 -131q0 -45 0.5 -68t3 -54.5t8.5 -46.5t16.5 -31.5t26.5 -23.5t39 -9l-5 -63q-54 -4 -72 -56t-18 -183q0 -51 -13.5 -84
t-40 -49t-55 -22t-68.5 -6z" />
    <glyph glyph-name="guillemotleft.case" horiz-adv-x="668" 
d="M306 137l-251 182v62l251 182l34 -61l-224 -152l224 -153zM580 137l-251 182v62l251 182l34 -61l-224 -152l224 -153z" />
    <glyph glyph-name="uni00AD.case" horiz-adv-x="443" 
d="M377 314h-311v72h311v-72z" />
    <glyph glyph-name="guillemotright.case" horiz-adv-x="668" 
d="M613 319l-251 -182l-34 60l224 153l-224 152l34 61l251 -182v-62zM339 319l-251 -182l-34 60l224 153l-224 152l34 61l251 -182v-62z" />
    <glyph glyph-name="gravecomb.case" horiz-adv-x="1" 
d="M-297 763l-55 -6l-95 171l80 6z" />
    <glyph glyph-name="acutecomb.case" horiz-adv-x="1" 
d="M-324 757l-55 6l71 171l79 -6z" />
    <glyph glyph-name="uni0302.case" horiz-adv-x="1" 
d="M-195 753l-142 98l-142 -98l-39 34l153 125h57l153 -125z" />
    <glyph glyph-name="tildecomb.case" horiz-adv-x="1" 
d="M-127 822q-52 -67 -135 -67q-32 0 -80.5 28t-72.5 28q-49 0 -92 -49l-39 45q52 67 135 67q32 0 80.5 -28t72.5 -28q49 0 92 49z" />
    <glyph glyph-name="uni0308.case" horiz-adv-x="1" 
d="M-292 757q-46 0 -46 43t46 43t46 -43t-46 -43zM-97 757q-46 0 -46 43t46 43t46 -43t-46 -43z" />
    <glyph glyph-name="uni030A.case" horiz-adv-x="1" 
d="M-162 658q-123 0 -123 110q0 111 123 111t123 -111q0 -110 -123 -110zM-162 702q68 0 68 66q0 67 -68 67t-68 -67q0 -66 68 -66z" />
    <glyph glyph-name="uni030C.case" horiz-adv-x="1" 
d="M-248 759h-57l-153 125l39 34l142 -98l142 98l40 -34z" />
    <glyph glyph-name="endash.case" horiz-adv-x="576" 
d="M511 314h-445v72h445v-72z" />
    <glyph glyph-name="emdash.case" horiz-adv-x="704" 
d="M638 314h-572v72h572v-72z" />
    <glyph glyph-name="guilsinglleft.case" horiz-adv-x="394" 
d="M306 137l-251 182v62l251 182l34 -61l-224 -152l224 -153z" />
    <glyph glyph-name="guilsinglright.case" horiz-adv-x="394" 
d="M339 319l-251 -182l-34 60l224 153l-224 152l34 61l251 -182v-62z" />
    <glyph glyph-name="f_f_j" horiz-adv-x="884" 
d="M773 610q-48 0 -48 43t48 43t48 -43t-48 -43zM702 -169l-41 51q46 33 60.5 64.5t14.5 102.5v394h-240v-443h-74v443h-240v-443h-74v443h-88v63h86q-7 42 -7 72q0 152 147 152q31 0 61 -8l-12 -63q-21 6 -42 6q-49 0 -66 -21t-17 -71q0 -39 8 -67h242q-7 42 -7 72
q0 152 147 152q31 0 61 -8l-12 -63q-21 6 -42 6q-49 0 -66 -21t-17 -71q0 -39 8 -67h244l74 10v-464q0 -90 -24 -137t-84 -84z" />
    <glyph glyph-name="f_j" horiz-adv-x="570" 
d="M459 610q-48 0 -48 43t48 43t48 -43t-48 -43zM388 -169l-41 51q46 33 60.5 64.5t14.5 102.5v394h-240v-443h-74v443h-88v63h86q-7 42 -7 72q0 152 147 152q31 0 61 -8l-12 -63q-21 6 -42 6q-49 0 -66 -21t-17 -71q0 -39 8 -67h244l74 10v-464q0 -90 -24 -137t-84 -84z
" />
    </font>
</defs>
</svg>
